<svg xmlns="http://www.w3.org/2000/svg"  viewBox="0 0 468 468" width="58px" height="58px"><path d="M117.846,327.679c2.155-4.37,3.37-9.282,3.37-14.472c0-18.143-14.793-32.902-32.978-32.902s-32.978,14.76-32.978,32.902 c0,5.191,1.215,10.102,3.37,14.472c-7.863,7.813-12.425,18.519-12.425,29.732v25.512c0,3.866,3.134,7,7,7s7-3.134,7-7v-25.512 c0-6.949,2.638-13.608,7.231-18.696c5.679,4.619,12.92,7.395,20.802,7.395c7.881,0,15.122-2.776,20.801-7.394 c4.593,5.088,7.231,11.747,7.231,18.696v25.512c0,3.866,3.134,7,7,7s7-3.134,7-7v-25.512 C130.271,346.199,125.708,335.492,117.846,327.679z"/><path d="M243.644,342.079h-67.342c-3.866,0-7-3.134-7-7s3.134-7,7-7h67.342c3.866,0,7,3.134,7,7S247.51,342.079,243.644,342.079 z"/><path d="M280.671,302.158H176.302c-3.866,0-7-3.134-7-7s3.134-7,7-7h104.369c3.866,0,7,3.134,7,7 S284.537,302.158,280.671,302.158z"/><path d="M280.671,381.999H176.302c-3.866,0-7-3.134-7-7s3.134-7,7-7h104.369c3.866,0,7,3.134,7,7 S284.537,381.999,280.671,381.999z"/><path d="M263.537,464.856l-21.497-35.745H27.019C12.121,429.111,0,417.01,0,402.136V268.622c0-14.874,12.121-26.975,27.019-26.975 h279.84c14.898,0,27.019,12.101,27.019,26.975v133.514c0,14.874-12.12,26.975-27.019,26.975h-9.827l-21.498,35.745 C274.267,466.961,269.021,470.73,263.537,464.856z M27.019,255.655c-7.179,0-13.019,5.817-13.019,12.967v133.514 c0,7.15,5.84,12.967,13.019,12.967h218.979c2.456,0,4.731,1.287,5.998,3.392l17.54,29.165l17.541-29.165 c1.267-2.105,3.542-3.392,5.998-3.392h13.784c7.179,0,13.019-5.817,13.019-12.967V268.622c0-7.15-5.84-12.967-13.019-12.967 H27.019z"/><path d="M409.462,86.231c2.177-4.388,3.407-9.324,3.407-14.543c0-18.143-14.794-32.902-32.978-32.902 s-32.978,14.76-32.978,32.902c0,5.219,1.23,10.155,3.407,14.543c-7.722,7.753-12.202,18.339-12.202,29.402v25.771 c0,3.866,3.134,7,7,7s7-3.134,7-7v-25.771c0-6.816,2.567-13.36,7.039-18.384c5.669,4.586,12.883,7.341,20.733,7.341 s15.064-2.755,20.733-7.341c4.472,5.024,7.039,11.568,7.039,18.384v25.771c0,3.866,3.134,7,7,7s7-3.134,7-7v-25.771 C421.664,104.569,417.185,93.984,409.462,86.231z"/><path d="M205.764,100.56h-18.305c-3.866,0-7-3.134-7-7s3.134-7,7-7h18.305c3.866,0,7,3.134,7,7S209.63,100.56,205.764,100.56z"/><path d="M291.828,100.56h-50.952c-3.866,0-7-3.134-7-7s3.134-7,7-7h50.952c3.866,0,7,3.134,7,7S295.694,100.56,291.828,100.56z"/><path d="M291.828,60.639H187.459c-3.866,0-7-3.134-7-7s3.134-7,7-7h104.369c3.866,0,7,3.134,7,7S295.694,60.639,291.828,60.639z"/><path d="M291.828,140.48H187.459c-3.866,0-7-3.134-7-7s3.134-7,7-7h104.369c3.866,0,7,3.134,7,7S295.694,140.48,291.828,140.48z"/><path d="M440.981,0h-279.84c-14.898,0-27.019,12.101-27.019,26.975v133.514c0,14.874,12.121,26.975,27.019,26.975h9.827 l21.498,35.745c5.014,5.473,10.73,2.105,11.996,0l21.498-35.745h215.021c14.898,0,27.019-12.101,27.019-26.975V26.975 C468,12.101,455.88,0,440.981,0z M454,160.489c0,7.15-5.84,12.967-13.019,12.967H222.002c-2.456,0-4.732,1.287-5.998,3.392 l-17.54,29.165l-17.54-29.165c-1.266-2.105-3.542-3.392-5.998-3.392h-13.785c-7.179,0-13.019-5.817-13.019-12.967V26.975 c0-7.15,5.84-12.967,13.019-12.967h279.84c7.179,0,13.019,5.817,13.019,12.967V160.489z"/><circle cx="278.021" cy="334.525" r="9"/></svg>