<svg width="560" height="420" viewBox="0 0 560 420" fill="none" xmlns="http://www.w3.org/2000/svg">
<path d="M328.845 249.92H316.905V400.241H328.845V249.92Z" fill="#339989"/>
<path d="M320.714 264.516C321.952 264.512 322.869 263.585 322.868 262.338C322.867 261.019 321.997 260.151 320.678 260.153C319.428 260.155 318.508 261.071 318.507 262.314C318.507 263.575 319.454 264.52 320.714 264.516Z" fill="#339989"/>
<path d="M318.735 269.038C318.762 267.937 318.023 267.119 316.979 267.096C316.954 267.095 316.931 267.1 316.906 267.1V270.789C317.938 270.781 318.709 270.051 318.735 269.038Z" fill="#339989"/>
<path d="M325.742 263.207C327.034 263.271 328.195 262.271 328.19 260.988C328.186 259.818 327.414 258.808 326.169 258.663C324.914 258.517 323.636 259.488 323.667 260.835C323.604 262.07 324.545 263.147 325.742 263.207Z" fill="#339989"/>
<path d="M322.071 269.491C323.14 269.613 324.064 268.642 324.103 267.555C324.141 266.507 323.206 265.591 322.154 265.589C320.963 265.586 320.103 266.411 320.096 267.564C320.089 268.625 320.968 269.483 322.071 269.491Z" fill="#339989"/>
<path d="M328.845 256.6V251.952C327.912 252.318 327.183 253.27 327.182 254.27C327.181 255.37 327.866 256.244 328.845 256.6Z" fill="#339989"/>
<path d="M319.254 259.526C320.539 259.572 321.728 258.423 321.728 257.141C321.728 255.917 320.735 254.654 319.321 254.738C317.954 254.72 316.996 255.698 316.939 257.072C316.881 258.464 318.09 259.484 319.254 259.526Z" fill="#339989"/>
<path d="M328.845 251.717V249.92H320.503C320.419 250.231 320.378 250.559 320.39 250.917C320.172 250.497 319.909 250.171 319.607 249.92H316.905V254.221C317.237 254.367 317.595 254.453 317.954 254.443C318.738 254.421 319.476 254.172 319.878 253.49C320.236 252.883 320.408 252.166 320.649 251.531C321.203 252.68 322.181 253.296 323.604 253.065C325.072 252.827 325.61 251.76 325.872 250.281C326.645 251.487 327.665 251.954 328.845 251.717Z" fill="#339989"/>
<path d="M324.597 253.238C323.173 253.268 322.05 254.267 322.006 255.648C321.965 256.94 323.163 258.208 324.489 258.212C325.662 258.214 327.006 257.235 326.951 255.761C327.133 254.522 325.87 253.211 324.597 253.238Z" fill="#339989"/>
<path d="M317.596 263.701C317.599 263.092 317.323 262.544 316.905 262.168V265.276C317.318 264.901 317.592 264.355 317.596 263.701Z" fill="#339989"/>
<path d="M327.263 268.185C327.901 268.194 328.465 267.913 328.845 267.475V264.818C328.484 264.38 327.955 264.097 327.339 264.08C326.261 264.051 325.235 265.054 325.232 266.137C325.23 267.231 326.161 268.17 327.263 268.185Z" fill="#339989"/>
<path d="M328.845 273.148V269.604C328.8 269.601 328.757 269.592 328.711 269.592C327.702 269.593 326.925 270.383 326.936 271.394C326.948 272.407 327.733 273.173 328.747 273.159C328.781 273.158 328.812 273.15 328.845 273.148Z" fill="#339989"/>
<path d="M326.3 277.988C326.298 277.18 325.701 276.599 324.878 276.603C324.057 276.608 323.479 277.191 323.485 278.009C323.491 278.786 324.135 279.434 324.897 279.43C325.64 279.427 326.301 278.747 326.3 277.988Z" fill="#339989"/>
<path d="M326.318 282.232C325.727 282.221 325.247 282.663 325.239 283.223C325.233 283.738 325.709 284.186 326.269 284.194C326.83 284.201 327.298 283.773 327.313 283.24C327.328 282.701 326.876 282.242 326.318 282.232Z" fill="#339989"/>
<path d="M319.867 274.121C319.865 273.278 319.137 272.549 318.279 272.53C317.732 272.518 317.207 272.858 316.905 273.333V275.042C317.191 275.475 317.687 275.76 318.264 275.764C319.23 275.769 319.87 275.113 319.867 274.121Z" fill="#339989"/>
<path d="M328.845 275.84C328.725 276.061 328.654 276.32 328.656 276.611C328.658 276.856 328.731 277.09 328.845 277.302V275.84Z" fill="#339989"/>
<path d="M325.215 272.783C325.228 271.86 324.426 271.032 323.504 271.017C322.601 271.002 321.757 271.842 321.759 272.753C321.762 273.731 322.494 274.462 323.476 274.468C324.466 274.474 325.2 273.762 325.215 272.783Z" fill="#339989"/>
<path d="M320.938 279.399C320.941 278.62 320.443 278.119 319.668 278.12C318.942 278.122 318.34 278.695 318.334 279.39C318.328 280.017 319.023 280.713 319.659 280.718C320.355 280.725 320.935 280.127 320.938 279.399Z" fill="#339989"/>
<path d="M321.146 283.763C320.651 283.725 320.274 284.035 320.232 284.514C320.189 285.006 320.543 285.453 321.003 285.488C321.469 285.523 321.908 285.136 321.943 284.657C321.976 284.217 321.602 283.798 321.146 283.763Z" fill="#339989"/>
<path d="M328.845 400.863H316.905C316.56 400.863 316.281 400.584 316.281 400.24V249.92C316.281 249.576 316.56 249.296 316.905 249.296H328.845C329.189 249.296 329.468 249.576 329.468 249.92V400.24C329.468 400.584 329.189 400.863 328.845 400.863ZM317.528 399.617H328.222V250.543H317.528V399.617Z" fill="#339989"/>
<path d="M327.47 393.659V393.644H327.422H315.53H315.482V393.659L272.221 403.051C260.532 405.631 250.666 409.423 246.264 414.127H315.482H327.471H396.689C392.291 408.665 384.853 406.692 372.406 403.507L327.47 393.659Z" fill="#339989"/>
<path d="M396.688 414.75H246.264C246.015 414.75 245.791 414.603 245.692 414.375C245.593 414.147 245.639 413.883 245.808 413.701C249.961 409.264 259.293 405.266 272.086 402.443L315.234 393.075C315.311 393.04 315.394 393.021 315.482 393.021H327.47C327.563 393.021 327.65 393.042 327.729 393.077L372.539 402.898C384.614 405.988 392.576 408.027 397.174 413.736C397.324 413.923 397.354 414.18 397.251 414.396C397.147 414.613 396.928 414.75 396.688 414.75ZM247.813 413.504H395.308C390.828 408.866 383.29 406.936 372.25 404.11L327.337 394.268L315.615 394.268L272.353 403.66C260.845 406.2 252.233 409.664 247.813 413.504Z" fill="#339989"/>
<path d="M429.177 241.073H216.573V255.991H429.177V241.073Z" fill="#339989"/>
<path d="M429.177 256.614H216.573C216.229 256.614 215.95 256.335 215.95 255.991V241.073C215.95 240.729 216.229 240.45 216.573 240.45H429.176C429.52 240.45 429.8 240.729 429.8 241.073V255.991C429.8 256.335 429.521 256.614 429.177 256.614ZM217.197 255.368H428.553V241.696H217.197V255.368Z" fill="#339989"/>
<path d="M357.517 198.729L380.114 180.859C380.586 180.486 381.281 180.554 381.666 181.011L406.874 210.944C407.259 211.401 407.189 212.075 406.716 212.448L384.12 230.318L357.517 198.729Z" fill="#FCC817"/>
<path d="M338.991 201.504L356.716 203.319L386.958 232.423L366.434 230.322C366.164 230.294 365.915 230.182 365.731 230.004L337.973 203.292C337.23 202.577 337.904 201.393 338.991 201.504Z" fill="#E9A700"/>
<path d="M377.589 229.899L409.464 211.448L389.128 178.656L357.253 197.107L377.589 229.899Z" fill="#EEEEEE"/>
<path d="M359.445 201.702L369.021 183.962L391.215 212.077L381.639 229.817L359.445 201.702Z" fill="#D6D7D8"/>
<path d="M358.223 204.829L342.193 198.783L369.105 223.854L385.136 229.9L358.223 204.829Z" fill="#EEEEEE"/>
<path d="M498.421 402.5H494.369L484.916 297.443H488.922L488.956 297.322L498.421 402.5Z" fill="url(#paint0_linear_6_272)"/>
<path d="M453.387 402.5H449.335L439.882 297.443H443.888L443.922 297.322L453.387 402.5Z" fill="url(#paint1_linear_6_272)"/>
<path d="M384.891 402.5H388.944L398.395 297.443H394.39L394.357 297.322L384.891 402.5Z" fill="url(#paint2_linear_6_272)"/>
<path d="M341.6 402.5H345.653L355.104 297.443H351.099L351.065 297.322L341.6 402.5Z" fill="url(#paint3_linear_6_272)"/>
<path d="M394.355 297.432L488.924 297.445L491.825 287.805H394.355V297.432Z" fill="url(#paint4_linear_6_272)"/>
<path d="M491.825 287.805H438.127L466.402 196.7L520.1 196.7L491.825 287.805Z" fill="url(#paint5_linear_6_272)"/>
<path d="M394.355 297.432L351.024 297.52V287.774L394.355 287.805V297.432Z" fill="url(#paint6_linear_6_272)"/>
<path d="M348.647 231.809C348.647 231.809 355.204 238.837 362.446 236.333C369.688 233.829 370.458 235.379 375.125 238.039C377.139 239.185 384.886 243.158 390.918 246.135L387.988 229.994C380.643 229.905 370.681 229.439 367.545 227.721C362.399 224.892 359.585 219.989 357.388 218.592C355.171 217.179 354.43 217.054 353.176 218.492C353.176 218.492 351.971 217.982 348.974 216.412C342.968 213.718 345.607 229.032 348.647 231.809Z" fill="#FFBEB6"/>
<path d="M362.069 376.317H341.568C341.568 376.317 345.725 306.387 347.669 286.983C349.623 267.481 350.814 260.516 377.447 257.908C407.859 254.929 426.343 254.988 426.343 254.988L395.698 280.873C388.536 286.923 385.426 296.519 387.676 305.626L388.036 307.083C389.364 312.464 388.843 318.137 386.555 323.185L375.798 346.918C375.8 346.917 377.546 366.751 362.069 376.317Z" fill="url(#paint7_linear_6_272)"/>
<path d="M472.567 260.534C471.527 264.569 471.821 282.765 451.087 286.758C427.054 291.386 412.558 290.434 405.61 292.331C399.964 293.873 398.34 296.031 398.937 300.039C399.536 304.041 405.265 308.688 407.066 316.297C408.867 323.905 405.473 328.676 412.774 338.078C419.896 347.251 424.219 356.351 417.653 376.317L395.853 376.319C395.853 376.319 356.647 300.804 354.649 284.988C352.65 269.171 364.499 265.635 370.101 264.029C372.222 263.417 379.291 261.466 393.648 257.941C396.721 260.01 403.594 263.882 409.937 262.154C418.42 259.834 420.344 256.553 430.181 258.874C436.014 260.248 446.394 262.099 454.716 259.098C460.618 260.049 466.588 260.528 472.567 260.534Z" fill="#428DFC"/>
<path d="M456.299 171.175C452.811 173.134 449.68 175.672 447.04 178.681L446.741 178.913C446.355 174.965 445.384 171.099 443.858 167.439C447.068 167.221 450.881 165.894 455.273 162.641C454.817 165.526 455.173 168.481 456.299 171.175Z" fill="url(#paint8_linear_6_272)"/>
<path d="M457.774 155.025C457.577 156.386 455.856 158.959 455.272 162.64C441.028 174.69 431.242 161.115 431.242 161.115C429.175 161.721 426.652 159.866 427.462 158.196C430.735 151.442 430.263 150.506 431.018 147.192C431.215 146.328 431.378 145.545 431.515 144.878C431.535 144.79 431.555 144.701 431.569 144.62C431.677 144.069 431.766 143.612 431.827 143.272L431.942 142.612C431.942 142.612 439.516 150.01 448.584 149.05C457.652 148.097 458.135 152.514 457.774 155.025Z" fill="#FFBEB6"/>
<path opacity="0.71" d="M460.615 261.554C460.566 261.521 460.5 261.532 460.466 261.58C460.433 261.623 460.439 261.686 460.482 261.72C460.483 261.721 460.485 261.722 460.486 261.723C460.535 261.756 460.601 261.745 460.635 261.696C460.665 261.65 460.656 261.59 460.615 261.554ZM451.527 267.067C451.471 267.08 451.435 267.134 451.445 267.189C451.457 267.246 451.511 267.281 451.567 267.27C451.62 267.259 451.656 267.209 451.649 267.156C451.641 267.099 451.589 267.059 451.533 267.066C451.531 267.066 451.529 267.066 451.527 267.067ZM451.139 264.59C451.08 264.595 451.039 264.647 451.044 264.705C451.057 264.765 451.113 264.803 451.173 264.794C451.23 264.783 451.266 264.728 451.255 264.671C451.248 264.618 451.199 264.581 451.147 264.588C451.145 264.588 451.142 264.589 451.139 264.59ZM450.738 262.099C450.681 262.115 450.646 262.17 450.656 262.228C450.666 262.283 450.718 262.319 450.772 262.31C450.828 262.301 450.866 262.249 450.86 262.194C450.851 262.135 450.798 262.093 450.738 262.099ZM441.329 264.616C441.284 264.591 441.227 264.602 441.194 264.643C441.158 264.686 441.163 264.751 441.207 264.787C441.25 264.823 441.314 264.818 441.351 264.774C441.353 264.772 441.356 264.769 441.357 264.765C441.391 264.717 441.378 264.651 441.329 264.616ZM456.061 264.031C456.033 263.985 455.972 263.971 455.926 264C455.923 264.001 455.921 264.003 455.918 264.004C455.874 264.029 455.858 264.086 455.884 264.13C455.887 264.134 455.889 264.137 455.891 264.14C455.915 264.186 455.972 264.205 456.018 264.18C456.021 264.178 456.025 264.177 456.027 264.174C456.075 264.147 456.093 264.086 456.065 264.038C456.064 264.036 456.062 264.033 456.061 264.031ZM454.749 261.888C454.719 261.844 454.66 261.829 454.613 261.854C454.592 261.875 454.572 261.888 454.565 261.909V261.923C454.553 261.95 454.559 261.984 454.579 262.005C454.58 262.012 454.585 262.018 454.593 262.019H454.6C454.607 262.026 454.613 262.039 454.627 262.045C454.655 262.054 454.687 262.051 454.715 262.039C454.765 262.006 454.78 261.939 454.749 261.888ZM453.437 259.751C453.407 259.704 453.344 259.69 453.297 259.722C453.25 259.753 453.237 259.815 453.268 259.862C453.297 259.907 453.357 259.921 453.403 259.893C453.451 259.865 453.467 259.801 453.438 259.753C453.438 259.752 453.438 259.751 453.437 259.751ZM446.53 265.57C446.472 265.559 446.417 265.595 446.401 265.652C446.385 265.708 446.418 265.765 446.474 265.781C446.53 265.796 446.587 265.763 446.603 265.708C446.604 265.705 446.604 265.702 446.605 265.699C446.613 265.644 446.583 265.59 446.53 265.57ZM447.115 263.133C447.058 263.12 447.002 263.153 446.986 263.208C446.976 263.267 447.013 263.321 447.071 263.331C447.122 263.341 447.173 263.312 447.19 263.262C447.201 263.206 447.169 263.151 447.115 263.133ZM464.749 270.831C464.684 270.742 464.561 270.721 464.471 270.783C464.384 270.849 464.368 270.973 464.433 271.061C464.498 271.144 464.616 271.164 464.702 271.103C464.79 271.045 464.814 270.927 464.756 270.839C464.753 270.837 464.751 270.833 464.749 270.831ZM461.995 266.944C461.933 266.856 461.811 266.835 461.723 266.896C461.634 266.955 461.609 267.073 461.665 267.163C461.668 267.167 461.671 267.172 461.675 267.176C461.737 267.264 461.859 267.286 461.947 267.223C462.036 267.158 462.057 267.034 461.995 266.944ZM459.243 263.065C459.177 262.976 459.055 262.955 458.964 263.017C458.876 263.076 458.852 263.195 458.911 263.282C458.912 263.285 458.915 263.287 458.917 263.29C458.979 263.38 459.103 263.401 459.193 263.338C459.28 263.276 459.303 263.155 459.243 263.065ZM447.855 279.106C447.749 279.089 447.648 279.158 447.624 279.263C447.606 279.369 447.678 279.469 447.783 279.487C447.785 279.487 447.785 279.487 447.787 279.487C447.895 279.506 447.999 279.433 448.018 279.324C448.018 279.324 448.018 279.324 448.018 279.324C448.036 279.221 447.968 279.125 447.866 279.107C447.863 279.107 447.859 279.107 447.855 279.106ZM448.651 274.403C448.545 274.385 448.446 274.456 448.427 274.561C448.427 274.563 448.426 274.565 448.426 274.567C448.407 274.674 448.477 274.777 448.582 274.799C448.691 274.814 448.792 274.742 448.814 274.635C448.827 274.527 448.757 274.427 448.651 274.403ZM449.446 269.708C449.339 269.694 449.239 269.766 449.215 269.871C449.198 269.979 449.272 270.079 449.379 270.096C449.484 270.112 449.582 270.043 449.603 269.94C449.624 269.835 449.557 269.732 449.45 269.71C449.449 269.708 449.448 269.708 449.446 269.708ZM450.235 265.011C450.129 265 450.033 265.072 450.01 265.175C449.991 265.283 450.063 265.388 450.172 265.407C450.28 265.426 450.385 265.353 450.404 265.245C450.423 265.136 450.351 265.032 450.242 265.013C450.24 265.013 450.238 265.013 450.235 265.011ZM451.037 260.315C450.931 260.297 450.831 260.369 450.813 260.475C450.813 260.477 450.813 260.477 450.813 260.479C450.79 260.582 450.855 260.685 450.958 260.708C450.962 260.709 450.966 260.709 450.969 260.71C451.072 260.729 451.172 260.663 451.192 260.56C451.192 260.556 451.193 260.551 451.194 260.547C451.212 260.44 451.144 260.339 451.037 260.315ZM468.685 263.371C468.595 263.31 468.473 263.335 468.412 263.426C468.351 263.517 468.376 263.639 468.466 263.7C468.468 263.702 468.471 263.704 468.474 263.706C468.567 263.761 468.685 263.733 468.746 263.644C468.806 263.557 468.783 263.438 468.697 263.378C468.692 263.376 468.689 263.373 468.685 263.371ZM457.815 276.554C457.709 276.576 457.643 276.679 457.666 276.785C457.689 276.89 457.792 276.957 457.897 276.934C458.006 276.911 458.077 276.805 458.053 276.696C458.024 276.592 457.92 276.53 457.815 276.554ZM456.755 271.912C456.654 271.93 456.585 272.025 456.602 272.127C456.603 272.132 456.604 272.138 456.606 272.144C456.628 272.249 456.731 272.316 456.836 272.293C456.836 272.293 456.836 272.293 456.837 272.293C456.946 272.27 457.016 272.164 456.993 272.055C456.968 271.95 456.862 271.886 456.759 271.912C456.757 271.912 456.756 271.912 456.755 271.912ZM455.688 267.264C455.583 267.29 455.519 267.396 455.545 267.501C455.567 267.606 455.67 267.674 455.775 267.65C455.775 267.65 455.775 267.65 455.776 267.65C455.884 267.626 455.953 267.521 455.932 267.413C455.904 267.307 455.795 267.241 455.688 267.264ZM454.627 262.623C454.522 262.648 454.458 262.754 454.483 262.857C454.483 262.859 454.484 262.859 454.484 262.861C454.503 262.961 454.6 263.027 454.701 263.007C454.705 263.006 454.71 263.005 454.715 263.004C454.818 262.984 454.886 262.886 454.866 262.783C454.865 262.78 454.865 262.776 454.864 262.772C454.838 262.667 454.734 262.6 454.627 262.623ZM439.984 273.682C439.901 273.624 439.789 273.645 439.732 273.727C439.727 273.734 439.722 273.742 439.719 273.75C439.662 273.839 439.689 273.957 439.778 274.014C439.778 274.015 439.779 274.016 439.78 274.016C439.87 274.075 439.989 274.05 440.048 273.961C440.05 273.959 440.051 273.956 440.052 273.954C440.107 273.86 440.076 273.739 439.984 273.682ZM442.52 269.653C442.432 269.593 442.314 269.617 442.255 269.703C442.252 269.707 442.25 269.711 442.248 269.714C442.188 269.805 442.213 269.926 442.302 269.987C442.399 270.035 442.517 270.006 442.581 269.919C442.634 269.828 442.607 269.711 442.52 269.653ZM445.048 265.617C444.959 265.557 444.838 265.58 444.777 265.669C444.776 265.669 444.775 265.67 444.775 265.671C444.715 265.763 444.74 265.886 444.831 265.947C444.833 265.948 444.835 265.95 444.837 265.951C444.924 266.009 445.041 265.983 445.098 265.896C445.099 265.894 445.101 265.891 445.102 265.889C445.162 265.799 445.138 265.678 445.048 265.617ZM447.571 261.582C447.48 261.526 447.363 261.556 447.308 261.646C447.307 261.648 447.306 261.648 447.306 261.65C447.247 261.734 447.269 261.848 447.352 261.906C447.357 261.909 447.362 261.912 447.367 261.915C447.459 261.969 447.578 261.942 447.639 261.853C447.697 261.764 447.67 261.644 447.581 261.587C447.577 261.586 447.574 261.584 447.571 261.582ZM462.308 275.444C462.222 275.466 462.17 275.553 462.192 275.639C462.194 275.648 462.197 275.655 462.2 275.662C462.226 275.751 462.319 275.801 462.408 275.774C462.411 275.773 462.414 275.772 462.417 275.771C462.507 275.74 462.556 275.643 462.526 275.553C462.501 275.465 462.41 275.415 462.323 275.439C462.317 275.441 462.313 275.442 462.308 275.444ZM460.969 271.401C460.879 271.428 460.829 271.523 460.856 271.612C460.857 271.617 460.859 271.621 460.861 271.626C460.891 271.717 460.986 271.767 461.078 271.741C461.171 271.708 461.219 271.605 461.186 271.513C461.153 271.425 461.06 271.377 460.969 271.401ZM459.854 267.474C459.849 267.441 459.829 267.411 459.8 267.393H459.793C459.747 267.356 459.685 267.346 459.63 267.366C459.536 267.398 459.487 267.501 459.52 267.594C459.521 267.595 459.521 267.596 459.521 267.597C459.552 267.687 459.649 267.734 459.739 267.706C459.783 267.694 459.819 267.661 459.834 267.617C459.869 267.579 459.876 267.523 459.854 267.474ZM458.298 263.331C458.201 263.362 458.151 263.466 458.182 263.562C458.218 263.651 458.315 263.697 458.407 263.671C458.497 263.644 458.547 263.549 458.52 263.46C458.519 263.455 458.517 263.451 458.515 263.446C458.486 263.355 458.389 263.303 458.298 263.331ZM444.62 274.152C444.531 274.11 444.425 274.145 444.382 274.233C444.338 274.32 444.37 274.427 444.457 274.471C444.548 274.511 444.654 274.476 444.701 274.389C444.734 274.301 444.699 274.202 444.62 274.152ZM446.523 270.354C446.435 270.312 446.328 270.348 446.286 270.436C446.242 270.518 446.273 270.62 446.355 270.664C446.357 270.665 446.359 270.666 446.361 270.667C446.439 270.712 446.539 270.686 446.584 270.607C446.587 270.602 446.59 270.597 446.592 270.592C446.639 270.509 446.611 270.403 446.53 270.356C446.527 270.356 446.525 270.355 446.523 270.354ZM448.427 266.557C448.339 266.515 448.232 266.551 448.19 266.639C448.145 266.717 448.172 266.817 448.25 266.862C448.255 266.865 448.26 266.868 448.265 266.87C448.354 266.912 448.46 266.876 448.503 266.788C448.543 266.703 448.51 266.601 448.427 266.557ZM450.323 262.752C450.235 262.721 450.135 262.754 450.086 262.834C450.044 262.923 450.08 263.029 450.168 263.072C450.254 263.113 450.358 263.081 450.405 262.997C450.445 262.906 450.41 262.8 450.323 262.752ZM466.565 266.06C466.505 265.987 466.399 265.975 466.326 266.035C466.321 266.038 466.317 266.042 466.313 266.046C466.241 266.099 466.227 266.199 466.281 266.27C466.285 266.275 466.289 266.28 466.293 266.285C466.346 266.358 466.447 266.373 466.521 266.32C466.527 266.315 466.532 266.31 466.538 266.305C466.612 266.245 466.624 266.135 466.565 266.06ZM463.784 262.841C463.716 262.771 463.607 262.767 463.533 262.827C463.461 262.893 463.454 263.006 463.519 263.078C463.581 263.148 463.687 263.153 463.756 263.092C463.833 263.032 463.848 262.923 463.788 262.847C463.787 262.845 463.785 262.843 463.784 262.841ZM453.838 274.458C453.739 274.456 453.656 274.53 453.647 274.628C453.644 274.727 453.72 274.809 453.819 274.812C453.911 274.816 453.99 274.748 454.001 274.656C454.007 274.556 453.936 274.47 453.838 274.458ZM454.144 270.225C454.048 270.219 453.966 270.293 453.96 270.388C453.955 270.484 454.027 270.567 454.123 270.573C454.217 270.578 454.298 270.509 454.307 270.416C454.313 270.318 454.24 270.234 454.144 270.225ZM454.449 265.992C454.361 265.979 454.279 266.04 454.267 266.129C454.266 266.135 454.266 266.142 454.266 266.148C454.26 266.244 454.333 266.326 454.429 266.332C454.523 266.34 454.605 266.27 454.613 266.176C454.62 266.082 454.55 265.999 454.457 265.992C454.454 265.992 454.452 265.992 454.449 265.992ZM454.756 261.751C454.659 261.743 454.575 261.813 454.565 261.908V261.922C454.567 261.955 454.576 261.988 454.592 262.017H454.598C454.605 262.024 454.612 262.038 454.625 262.044C454.654 262.074 454.692 262.093 454.734 262.099C454.83 262.105 454.911 262.03 454.917 261.935C454.923 261.839 454.851 261.758 454.756 261.751ZM439.378 267.352C439.312 267.281 439.203 267.273 439.127 267.332C439.055 267.398 439.05 267.51 439.113 267.583C439.175 267.657 439.284 267.666 439.356 267.604C439.357 267.604 439.357 267.604 439.358 267.603C439.431 267.54 439.441 267.428 439.378 267.352ZM442.587 264.569C442.522 264.501 442.415 264.495 442.343 264.555C442.268 264.611 442.253 264.716 442.308 264.789C442.311 264.793 442.314 264.796 442.316 264.8C442.381 264.873 442.493 264.882 442.568 264.82C442.642 264.76 442.654 264.649 442.593 264.575C442.591 264.574 442.59 264.571 442.587 264.569ZM464.674 265.325C464.642 265.28 464.582 265.262 464.531 265.284C464.481 265.312 464.462 265.376 464.491 265.426V265.427C464.513 265.474 464.57 265.495 464.618 265.472C464.62 265.471 464.624 265.47 464.627 265.467C464.679 265.441 464.7 265.377 464.674 265.325ZM463.444 263.147C463.415 263.099 463.352 263.081 463.301 263.107C463.251 263.134 463.232 263.199 463.261 263.25C463.288 263.3 463.353 263.319 463.404 263.29C463.452 263.26 463.469 263.198 463.444 263.147ZM454.138 266.55C454.086 266.534 454.031 266.564 454.016 266.615C454.016 266.616 454.016 266.617 454.016 266.618C454 266.673 454.03 266.73 454.084 266.747C454.141 266.761 454.196 266.728 454.213 266.672C454.224 266.617 454.191 266.562 454.138 266.55ZM454.81 264.134C454.762 264.116 454.709 264.141 454.692 264.189C454.69 264.193 454.689 264.197 454.688 264.202C454.67 264.254 454.697 264.311 454.749 264.329C454.751 264.33 454.753 264.331 454.756 264.331C454.813 264.344 454.869 264.316 454.892 264.263C454.906 264.205 454.869 264.148 454.812 264.134C454.811 264.134 454.811 264.134 454.81 264.134ZM455.49 261.718C455.436 261.702 455.378 261.734 455.362 261.788C455.362 261.789 455.362 261.791 455.361 261.793C455.348 261.848 455.381 261.903 455.436 261.915C455.487 261.931 455.542 261.901 455.557 261.85C455.557 261.849 455.558 261.848 455.558 261.847C455.574 261.793 455.544 261.735 455.49 261.718ZM459.398 265.597C459.346 265.599 459.305 265.643 459.308 265.696C459.308 265.702 459.308 265.707 459.31 265.712C459.321 265.766 459.37 265.804 459.425 265.801C459.481 265.792 459.52 265.74 459.514 265.685C459.507 265.63 459.457 265.59 459.402 265.596C459.402 265.596 459.4 265.597 459.398 265.597ZM459.093 263.105C459.039 263.105 459.004 263.16 459.004 263.221C459.016 263.275 459.065 263.313 459.12 263.309C459.179 263.302 459.222 263.248 459.216 263.19C459.216 263.189 459.216 263.188 459.216 263.187C459.207 263.131 459.155 263.095 459.101 263.104C459.097 263.104 459.095 263.105 459.093 263.105ZM450.221 263.105C450.182 263.071 450.122 263.075 450.087 263.114C450.084 263.118 450.081 263.122 450.078 263.126C450.045 263.171 450.054 263.234 450.099 263.269C450.144 263.302 450.207 263.293 450.242 263.248C450.276 263.203 450.266 263.14 450.221 263.105ZM451.772 261.139C451.733 261.104 451.673 261.108 451.638 261.146C451.635 261.15 451.632 261.155 451.629 261.159C451.595 261.196 451.597 261.255 451.634 261.288C451.637 261.291 451.64 261.293 451.642 261.295C451.688 261.332 451.754 261.326 451.791 261.282C451.825 261.239 451.818 261.176 451.776 261.142C451.774 261.141 451.773 261.139 451.772 261.139ZM465.708 268.087C465.648 268.103 465.613 268.164 465.629 268.224C465.631 268.228 465.632 268.233 465.633 268.237C465.656 268.297 465.721 268.33 465.782 268.312C465.845 268.287 465.878 268.219 465.857 268.156C465.834 268.095 465.768 268.065 465.708 268.087ZM464.783 265.379C464.721 265.398 464.684 265.465 464.701 265.528C464.726 265.59 464.794 265.621 464.857 265.603C464.916 265.585 464.948 265.522 464.929 265.464C464.928 265.461 464.926 265.456 464.925 265.453C464.907 265.393 464.846 265.36 464.786 265.377C464.786 265.378 464.784 265.378 464.783 265.379ZM463.852 262.67C463.788 262.692 463.754 262.761 463.776 262.824C463.776 262.825 463.777 262.826 463.777 262.827C463.777 262.834 463.777 262.834 463.784 262.841C463.813 262.89 463.871 262.914 463.927 262.903C463.988 262.878 464.02 262.809 464.001 262.746C463.981 262.683 463.914 262.651 463.852 262.67ZM453.79 267.345C453.727 267.322 453.658 267.348 453.627 267.407C453.599 267.466 453.623 267.535 453.681 267.564C453.734 267.593 453.8 267.576 453.83 267.524C453.833 267.519 453.835 267.514 453.837 267.51C453.87 267.45 453.848 267.379 453.79 267.345ZM455.042 264.773C454.981 264.752 454.915 264.779 454.886 264.835C454.856 264.89 454.875 264.959 454.93 264.989C454.931 264.99 454.932 264.991 454.933 264.991C454.99 265.024 455.062 265.004 455.094 264.948C455.095 264.947 455.095 264.945 455.096 264.944C455.123 264.881 455.099 264.809 455.042 264.773ZM456.299 262.208C456.239 262.183 456.169 262.205 456.136 262.262C456.112 262.322 456.135 262.389 456.191 262.419C456.243 262.449 456.309 262.431 456.34 262.379C456.342 262.374 456.344 262.37 456.346 262.365C456.377 262.311 456.359 262.243 456.306 262.212C456.304 262.21 456.301 262.209 456.299 262.208ZM470.201 263.793C470.159 263.743 470.083 263.735 470.033 263.778C470.032 263.778 470.031 263.778 470.03 263.779C469.982 263.823 469.976 263.897 470.017 263.949C470.061 263.998 470.136 264.002 470.186 263.958C470.186 263.957 470.187 263.957 470.187 263.956C470.235 263.914 470.241 263.842 470.201 263.793ZM459.8 267.393H459.793C459.729 267.395 459.68 267.446 459.678 267.509C459.671 267.569 459.715 267.624 459.777 267.63C459.78 267.631 459.783 267.631 459.787 267.631C459.804 267.632 459.82 267.628 459.834 267.617C459.881 267.612 459.914 267.569 459.909 267.522C459.916 267.458 459.871 267.4 459.806 267.393C459.804 267.393 459.802 267.393 459.8 267.393ZM459.977 264.535C459.911 264.529 459.853 264.577 459.848 264.643C459.842 264.709 459.89 264.767 459.956 264.772C459.959 264.772 459.961 264.773 459.964 264.773C460.028 264.777 460.082 264.73 460.086 264.667C460.086 264.666 460.086 264.665 460.086 264.664C460.093 264.601 460.048 264.543 459.983 264.536C459.981 264.535 459.979 264.535 459.977 264.535ZM460.153 261.683C460.094 261.675 460.041 261.716 460.032 261.775C460.032 261.781 460.031 261.786 460.031 261.793C460.024 261.857 460.07 261.914 460.134 261.921C460.136 261.921 460.138 261.922 460.14 261.922C460.206 261.923 460.26 261.872 460.262 261.806C460.269 261.746 460.225 261.691 460.164 261.685C460.16 261.683 460.157 261.683 460.153 261.683ZM450.01 262.704C449.969 262.66 449.899 262.657 449.854 262.698C449.852 262.7 449.85 262.702 449.848 262.704C449.8 262.745 449.794 262.818 449.834 262.868C449.877 262.919 449.953 262.925 450.004 262.882C450.055 262.839 450.062 262.763 450.019 262.712C450.015 262.71 450.013 262.708 450.01 262.704ZM452.152 260.812C452.108 260.763 452.034 260.758 451.985 260.802C451.984 260.803 451.983 260.804 451.982 260.805C451.937 260.846 451.934 260.917 451.975 260.962C451.977 260.964 451.979 260.966 451.982 260.968C452.015 261.014 452.08 261.025 452.127 260.991C452.131 260.988 452.135 260.985 452.138 260.981C452.188 260.94 452.196 260.865 452.154 260.814C452.153 260.814 452.153 260.813 452.152 260.812ZM461.255 279.964C461.144 279.951 461.044 280.031 461.031 280.142C461.031 280.144 461.03 280.146 461.03 280.148C461.023 280.258 461.104 280.355 461.214 280.366C461.326 280.375 461.425 280.294 461.439 280.182C461.449 280.072 461.367 279.974 461.258 279.964C461.256 279.964 461.255 279.964 461.255 279.964ZM461.649 275.071C461.54 275.06 461.443 275.141 461.432 275.251C461.432 275.252 461.432 275.253 461.432 275.255C461.427 275.367 461.511 275.462 461.623 275.472C461.733 275.482 461.831 275.4 461.84 275.288C461.849 275.178 461.767 275.08 461.656 275.071C461.653 275.071 461.651 275.071 461.649 275.071ZM462.057 270.177C461.947 270.164 461.846 270.244 461.834 270.355C461.821 270.465 461.9 270.565 462.011 270.578C462.015 270.578 462.019 270.578 462.023 270.579C462.136 270.59 462.236 270.508 462.248 270.395C462.25 270.284 462.167 270.19 462.057 270.177ZM462.459 265.283C462.347 265.279 462.251 265.362 462.241 265.474C462.233 265.584 462.314 265.68 462.425 265.691C462.537 265.699 462.635 265.614 462.643 265.5C462.649 265.391 462.568 265.294 462.459 265.283ZM443.036 270.585C442.967 270.5 442.843 270.488 442.758 270.559C442.755 270.561 442.753 270.563 442.75 270.565C442.666 270.629 442.649 270.747 442.712 270.831C442.716 270.836 442.719 270.84 442.723 270.844C442.798 270.93 442.926 270.942 443.016 270.871C443.096 270.797 443.105 270.671 443.036 270.585ZM446.775 267.414C446.705 267.327 446.58 267.314 446.492 267.384C446.406 267.453 446.392 267.579 446.462 267.666C446.464 267.669 446.466 267.671 446.468 267.674C446.542 267.757 446.666 267.768 446.754 267.7C446.838 267.626 446.847 267.499 446.775 267.414ZM450.514 264.235C450.442 264.149 450.315 264.137 450.229 264.208C450.146 264.285 450.135 264.41 450.202 264.501C450.275 264.585 450.402 264.594 450.487 264.522C450.574 264.454 450.588 264.329 450.52 264.243C450.518 264.24 450.516 264.237 450.514 264.235ZM454.253 261.065C454.185 260.978 454.06 260.964 453.975 261.032C453.972 261.034 453.97 261.036 453.967 261.038C453.885 261.114 453.872 261.24 453.94 261.33C454.014 261.414 454.141 261.423 454.226 261.351C454.312 261.283 454.327 261.158 454.259 261.072C454.257 261.069 454.255 261.067 454.253 261.065ZM468.134 267.216C468.027 267.247 467.965 267.36 467.996 267.468C468.027 267.577 468.141 267.638 468.248 267.606C468.251 267.606 468.254 267.605 468.256 267.604C468.364 267.573 468.426 267.459 468.394 267.352C468.363 267.243 468.25 267.182 468.142 267.213C468.14 267.214 468.137 267.216 468.134 267.216ZM466.761 262.548C466.721 262.539 466.679 262.539 466.639 262.548C466.53 262.583 466.471 262.697 466.503 262.806C466.543 262.914 466.662 262.969 466.77 262.928C466.871 262.89 466.926 262.781 466.897 262.677C466.876 262.614 466.825 262.565 466.761 262.548ZM452.574 275.186C452.472 275.137 452.351 275.18 452.301 275.281C452.253 275.38 452.289 275.499 452.383 275.554C452.485 275.601 452.605 275.562 452.662 275.466C452.714 275.365 452.677 275.241 452.577 275.187C452.576 275.187 452.575 275.187 452.574 275.186ZM454.817 270.824C454.72 270.774 454.6 270.811 454.55 270.909C454.548 270.912 454.547 270.916 454.546 270.919C454.495 271.014 454.53 271.132 454.624 271.184C454.625 271.184 454.627 271.184 454.627 271.185C454.727 271.239 454.852 271.2 454.904 271.1C454.905 271.098 454.906 271.098 454.906 271.096C454.958 271.002 454.924 270.883 454.83 270.83C454.826 270.828 454.821 270.826 454.817 270.824ZM457.054 266.454C456.954 266.411 456.838 266.452 456.789 266.55C456.738 266.647 456.775 266.768 456.872 266.82C456.874 266.821 456.876 266.822 456.878 266.823C456.972 266.872 457.089 266.836 457.139 266.742C457.14 266.739 457.142 266.737 457.142 266.734C457.195 266.634 457.158 266.509 457.057 266.456C457.056 266.455 457.055 266.455 457.054 266.454ZM459.297 262.092C459.195 262.046 459.075 262.087 459.024 262.188C458.978 262.29 459.024 262.409 459.125 262.456C459.221 262.499 459.333 262.463 459.385 262.372C459.437 262.271 459.4 262.147 459.3 262.094C459.299 262.094 459.298 262.093 459.297 262.092ZM470.411 264.487C470.306 264.524 470.249 264.638 470.282 264.746C470.328 264.847 470.44 264.899 470.547 264.868C470.652 264.829 470.704 264.714 470.665 264.61C470.665 264.607 470.663 264.605 470.663 264.603C470.627 264.502 470.516 264.45 470.416 264.486C470.415 264.487 470.413 264.487 470.411 264.487ZM455.082 277.425C454.977 277.382 454.856 277.43 454.81 277.533C454.769 277.635 454.813 277.751 454.912 277.799C455.009 277.846 455.126 277.804 455.173 277.707C455.174 277.703 455.176 277.7 455.177 277.697C455.226 277.596 455.183 277.474 455.082 277.425ZM457.128 272.988C457.022 272.945 456.902 272.993 456.856 273.097C456.812 273.201 456.861 273.32 456.965 273.364C457.068 273.407 457.184 273.361 457.23 273.26C457.274 273.156 457.228 273.037 457.128 272.988ZM459.175 268.558C459.076 268.511 458.958 268.552 458.91 268.651C458.91 268.652 458.91 268.652 458.91 268.653C458.861 268.754 458.902 268.875 459.002 268.924C459.103 268.973 459.224 268.932 459.273 268.832C459.322 268.731 459.281 268.61 459.181 268.56C459.179 268.559 459.177 268.558 459.175 268.558ZM461.22 264.12C461.123 264.072 461.006 264.112 460.958 264.21C460.958 264.212 460.956 264.214 460.956 264.215C460.911 264.317 460.956 264.436 461.058 264.481C461.15 264.531 461.264 264.497 461.314 264.405C461.317 264.399 461.32 264.392 461.323 264.386C461.368 264.285 461.324 264.167 461.224 264.121C461.223 264.121 461.222 264.12 461.22 264.12ZM465.694 272.349C465.582 272.347 465.489 272.434 465.483 272.546C465.484 272.658 465.576 272.75 465.688 272.75C465.793 272.749 465.88 272.67 465.891 272.566C465.895 272.452 465.807 272.355 465.694 272.349ZM465.898 267.461C465.784 267.457 465.688 267.545 465.68 267.659C465.678 267.768 465.762 267.86 465.871 267.869C465.981 267.875 466.075 267.79 466.082 267.679C466.082 267.677 466.082 267.674 466.082 267.672C466.089 267.563 466.006 267.469 465.898 267.461ZM466.088 262.575C465.976 262.574 465.88 262.659 465.871 262.772C465.868 262.885 465.959 262.98 466.072 262.983C466.073 262.983 466.074 262.983 466.075 262.983C466.184 262.987 466.278 262.903 466.285 262.793C466.287 262.679 466.201 262.585 466.088 262.575ZM448.61 269.591C448.54 269.511 448.42 269.501 448.339 269.57C448.333 269.575 448.328 269.58 448.324 269.585C448.243 269.656 448.235 269.78 448.306 269.86C448.308 269.861 448.308 269.863 448.31 269.863C448.381 269.946 448.507 269.955 448.588 269.883C448.591 269.881 448.593 269.879 448.595 269.876C448.678 269.809 448.69 269.688 448.623 269.606C448.619 269.602 448.615 269.596 448.61 269.591ZM452.2 266.27C452.123 266.188 451.993 266.183 451.911 266.26C451.828 266.337 451.824 266.467 451.901 266.549C451.976 266.63 452.103 266.637 452.186 266.563C452.27 266.492 452.281 266.366 452.209 266.281C452.207 266.277 452.203 266.274 452.2 266.27ZM455.789 262.956C455.712 262.874 455.583 262.869 455.5 262.946C455.418 263.023 455.413 263.153 455.49 263.235C455.565 263.316 455.692 263.322 455.775 263.249C455.86 263.177 455.87 263.052 455.799 262.967C455.796 262.964 455.793 262.96 455.789 262.956ZM457.033 269.265C456.97 269.212 456.878 269.219 456.824 269.281C456.821 269.285 456.818 269.289 456.815 269.293C456.767 269.361 456.783 269.455 456.849 269.504C456.913 269.556 457.007 269.547 457.06 269.484C457.113 269.42 457.104 269.326 457.041 269.273C457.039 269.27 457.036 269.267 457.033 269.265ZM459.243 266.311C459.175 266.258 459.077 266.271 459.025 266.338C458.973 266.406 458.985 266.503 459.052 266.555C459.12 266.608 459.217 266.595 459.269 266.529C459.322 266.462 459.31 266.364 459.243 266.311ZM461.445 263.358C461.376 263.311 461.283 263.323 461.227 263.385C461.179 263.455 461.194 263.551 461.261 263.603C461.328 263.649 461.419 263.638 461.472 263.576C461.525 263.51 461.514 263.415 461.45 263.362C461.448 263.361 461.447 263.359 461.445 263.358ZM464.633 270.769C464.551 270.75 464.468 270.796 464.443 270.877C464.427 270.959 464.473 271.041 464.551 271.068C464.631 271.085 464.71 271.038 464.735 270.96C464.761 270.882 464.719 270.798 464.642 270.771C464.64 270.771 464.637 270.769 464.633 270.769ZM465.538 267.196C465.462 267.177 465.384 267.222 465.364 267.299C465.362 267.303 465.362 267.308 465.361 267.312C465.338 267.389 465.38 267.471 465.458 267.495C465.46 267.496 465.462 267.496 465.463 267.496C465.548 267.517 465.633 267.466 465.654 267.381C465.671 267.297 465.62 267.216 465.538 267.196ZM466.455 263.622C466.37 263.604 466.287 263.655 466.265 263.738C466.243 263.812 466.286 263.89 466.361 263.912C466.365 263.913 466.37 263.914 466.374 263.915C466.451 263.941 466.535 263.899 466.562 263.822C466.563 263.819 466.564 263.816 466.565 263.813C466.584 263.731 466.536 263.649 466.455 263.622ZM453.375 262.48C453.336 262.408 453.246 262.383 453.175 262.423C453.174 262.423 453.173 262.424 453.172 262.425C453.1 262.46 453.071 262.547 453.107 262.618C453.11 262.624 453.113 262.63 453.117 262.635C453.157 262.707 453.247 262.732 453.318 262.692C453.319 262.692 453.32 262.691 453.321 262.69C453.395 262.648 453.419 262.553 453.375 262.48ZM456.544 260.601C456.501 260.528 456.407 260.504 456.333 260.546C456.262 260.586 456.237 260.676 456.276 260.747C456.277 260.748 456.278 260.749 456.278 260.75C456.317 260.824 456.409 260.853 456.483 260.815C456.485 260.813 456.487 260.812 456.489 260.811C456.562 260.769 456.586 260.675 456.544 260.601ZM467.509 263.167C467.466 263.155 467.419 263.171 467.394 263.208C467.379 263.252 467.399 263.302 467.441 263.323C467.483 263.34 467.532 263.32 467.55 263.278C467.55 263.277 467.55 263.276 467.55 263.276C467.565 263.235 467.548 263.188 467.509 263.167ZM464.497 265.685C464.452 265.634 464.373 265.63 464.322 265.676C464.318 265.679 464.316 265.682 464.313 265.685C464.259 265.728 464.25 265.808 464.294 265.863C464.297 265.868 464.301 265.872 464.306 265.876C464.358 265.93 464.441 265.932 464.496 265.883C464.55 265.838 464.558 265.756 464.512 265.701C464.508 265.695 464.502 265.69 464.497 265.685ZM466.891 263.358C466.836 263.303 466.748 263.303 466.694 263.358C466.639 263.413 466.639 263.501 466.694 263.555C466.753 263.605 466.841 263.599 466.891 263.541C466.936 263.489 466.936 263.41 466.891 263.358Z" fill="white"/>
<path d="M490.895 261.725C490.895 261.725 479.406 267.346 453.9 259.376C447.632 257.393 441.502 254.997 435.551 252.203L443.839 182.772C444.81 181.34 445.877 179.976 447.034 178.689C447.034 178.689 447.027 178.682 447.041 178.682C447.258 178.438 447.476 178.199 447.693 177.968C447.728 177.924 447.767 177.883 447.809 177.846C448.033 177.614 448.251 177.383 448.468 177.165C448.944 176.688 449.406 176.246 449.869 175.824C450.093 175.62 450.325 175.415 450.548 175.225C451.221 174.633 451.874 174.116 452.479 173.66C452.683 173.511 452.881 173.36 453.077 173.217C454.049 172.516 454.9 171.979 455.572 171.584C455.845 171.427 456.089 171.291 456.3 171.175C456.245 171.039 456.191 170.903 456.151 170.767C456.212 170.726 456.28 170.678 456.342 170.631C464.156 175.974 470.771 182.89 475.764 190.939C484.241 204.476 482.025 209.471 486.627 217.447C491.221 225.423 505.599 242.566 490.895 261.725Z" fill="url(#paint9_linear_6_272)"/>
<path d="M466.809 244.397C465.082 253.108 459.964 257.45 453.9 259.376C445.721 261.975 435.824 260.199 430.182 258.872C420.345 256.552 418.421 259.832 409.937 262.153C401.453 264.466 392.861 260.758 392.861 260.758L386.069 229.982C386.069 229.982 398.245 229.56 411.093 228.764C423.989 227.967 432.881 222.196 436.926 200.003C437.989 193.834 440.346 187.961 443.84 182.771C444.812 181.339 445.879 179.975 447.035 178.688C447.035 178.688 447.028 178.681 447.042 178.681C447.26 178.437 447.477 178.198 447.695 177.967C447.729 177.923 447.768 177.882 447.81 177.845C448.035 177.613 448.252 177.383 448.47 177.164C448.945 176.681 449.408 176.238 449.87 175.823C450.095 175.619 450.326 175.415 450.55 175.224C451.222 174.632 451.875 174.115 452.48 173.659C452.684 173.51 452.882 173.36 453.079 173.217C454.051 172.515 454.901 171.978 455.574 171.583C455.846 171.427 456.09 171.291 456.301 171.175C456.746 172.285 457.28 173.357 457.899 174.38C463.983 184.541 462.196 188.359 462.196 188.359L466.615 187.127C469.031 202.978 469.732 229.628 466.809 244.397Z" fill="#23286B"/>
<path d="M362.07 376.317H341.568C341.568 376.317 330.867 386.372 319.403 391.291C307.939 396.209 304.5 402.85 304.5 402.85L371.57 402.848L362.07 376.317Z" fill="url(#paint10_linear_6_272)"/>
<path d="M417.652 376.317L395.852 376.317C395.852 376.317 386.45 386.371 374.986 391.29C363.521 396.209 360.082 402.849 360.082 402.849L427.153 402.847L417.652 376.317Z" fill="#28306D"/>
<path d="M429.299 150.367C430.599 152.469 433.512 152.118 434.56 149.806C434.686 149.527 434.267 149.368 434.142 149.645C433.668 150.94 432.235 151.606 430.941 151.131C430.404 150.934 429.95 150.557 429.656 150.065C429.502 149.814 429.144 150.118 429.299 150.367Z" fill="#1C2868"/>
<path d="M491.741 168.37C489.532 164.615 486.099 162.199 482.779 159.512C479.221 156.564 476.255 152.966 474.036 148.91C473.46 147.063 472.839 144.852 472.097 142.121C468.038 127.183 452.641 126.591 441.539 129.456C430.567 132.287 427.943 139.406 431.016 147.191C431.411 145.469 431.683 144.054 431.825 143.271L431.94 142.611C431.94 142.611 439.514 150.009 448.582 149.049C452.737 148.613 455.086 149.304 456.381 150.422C457.033 151.782 457.243 153.315 456.978 154.8C456.635 156.938 455.601 158.83 454.725 160.785C453.605 163.281 452.806 165.749 453.239 168.507C454.317 175.387 462.754 182.128 457.808 189.195C457.493 189.644 458.23 190.07 458.542 189.624C464.528 181.07 452.194 173.211 454.255 164.465C454.616 163.118 455.115 161.811 455.747 160.567C455.545 161.247 455.386 161.939 455.272 162.639C454.769 165.77 455.095 169.71 457.895 174.378C463.979 184.539 462.192 188.357 462.192 188.357L492.981 179.754C492.981 179.754 494.538 172.826 485.585 164.7C479.678 159.34 477.462 157.724 475.471 152.959C476.322 154.185 477.248 155.357 478.245 156.469C481.162 159.71 484.988 161.881 488.037 164.967C491.891 168.893 493.922 174.257 493.637 179.754C493.618 180.301 494.468 180.3 494.487 179.754C494.686 175.774 493.733 171.822 491.741 168.37Z" fill="#3E8AF8"/>
<path d="M167.073 339.897L185.131 330.62C163.269 287.599 166.668 242.641 166.718 242.233L146.48 240.5C146.328 242.539 142.523 291.473 167.073 339.897Z" fill="#1B236D"/>
<path d="M154.19 149.921L174.175 146.475C166.008 98.8667 182.493 56.967 182.696 56.5592L163.883 48.8419C163.117 50.7789 145.009 96.3486 154.19 149.921Z" fill="#1B236D"/>
<path d="M174.733 294.633C204.152 298.66 224.746 325.981 220.688 355.647C216.63 385.314 189.544 406.162 160.175 402.135C130.806 398.108 110.162 370.786 114.22 341.12C118.176 311.454 145.313 290.606 174.733 294.633Z" fill="url(#paint11_linear_6_272)"/>
<path d="M162.204 196.663C168.652 197.519 174.703 200.279 179.589 204.593C184.476 208.907 187.978 214.581 189.654 220.896C191.33 227.212 191.103 233.885 189.002 240.071C186.901 246.257 183.02 251.678 177.852 255.646C172.684 259.614 166.46 261.952 159.968 262.364C153.477 262.775 147.01 261.242 141.387 257.957C135.763 254.673 131.236 249.786 128.378 243.914C125.52 238.042 124.461 231.451 125.333 224.973C126.49 216.307 131.023 208.457 137.937 203.149C144.851 197.84 153.579 195.507 162.204 196.663Z" fill="url(#paint12_linear_6_272)"/>
<path d="M183.254 212.822L134.154 210.936C131.807 210.857 129.564 209.942 127.826 208.355C126.089 206.767 124.97 204.611 124.669 202.27L112.749 113.119C112.573 111.777 112.691 110.412 113.096 109.121C113.5 107.83 114.181 106.644 115.09 105.645C115.999 104.647 117.115 103.86 118.359 103.341C119.602 102.821 120.944 102.582 122.29 102.639L206.389 106.411C207.755 106.471 209.091 106.837 210.299 107.482C211.507 108.126 212.557 109.033 213.372 110.136C214.188 111.239 214.749 112.511 215.014 113.859C215.279 115.208 215.242 116.598 214.905 117.931L193.302 205.227C192.756 207.463 191.458 209.441 189.626 210.825C187.795 212.21 185.544 212.915 183.254 212.822Z" fill="url(#paint13_linear_6_272)"/>
<path d="M183.406 6.48349C177.725 5.05625 171.08 12.0395 168.595 22.0302L189.189 27.2294C191.674 17.2388 189.087 7.9617 183.406 6.48349Z" fill="#FCC817"/>
<path d="M177.624 91.1494L148.711 83.8093C146.491 83.2514 144.402 82.2583 142.564 80.887C140.726 79.5156 139.176 77.793 138.003 75.8181C136.829 73.8431 136.055 71.6547 135.726 69.3784C135.396 67.1021 135.517 64.7828 136.081 62.5536L143.436 33.1933C144.563 28.687 147.423 24.8142 151.389 22.425C155.355 20.0358 160.102 19.3255 164.588 20.4501L193.5 27.7901C195.721 28.348 197.81 29.3411 199.648 30.7125C201.485 32.0838 203.035 33.8064 204.209 35.7814C205.383 37.7564 206.156 39.9448 206.486 42.2211C206.816 44.4973 206.695 46.8166 206.13 49.0458L198.775 78.4062C198.229 80.6445 197.247 82.7518 195.886 84.6064C194.525 86.4609 192.811 88.0259 190.844 89.2109C188.877 90.3959 186.696 91.1773 184.427 91.51C182.158 91.8428 179.846 91.7202 177.624 91.1494Z" fill="url(#paint14_linear_6_272)"/>
<path d="M42.6936 385.669C42.5344 375.818 50.33 367.702 60.1055 367.543C69.8809 367.383 77.9345 375.24 78.0937 385.092C78.2528 394.944 70.4572 403.059 60.6818 403.219C50.9063 403.378 42.8527 395.521 42.6936 385.669Z" fill="#1B236D"/>
<path d="M165.755 366.81C162.144 366.331 158.755 364.786 156.019 362.371C153.282 359.956 151.32 356.778 150.382 353.242C149.443 349.705 149.57 345.968 150.747 342.504C151.923 339.04 154.096 336.005 156.99 333.782C159.884 331.56 163.369 330.251 167.004 330.02C170.639 329.79 174.26 330.649 177.409 332.488C180.559 334.327 183.094 337.064 184.694 340.352C186.294 343.64 186.888 347.331 186.399 350.958C185.747 355.808 183.207 360.201 179.337 363.172C175.467 366.144 170.583 367.452 165.755 366.81ZM170.015 335.36C167.436 334.997 164.808 335.411 162.463 336.55C160.118 337.689 158.162 339.501 156.843 341.758C155.524 344.014 154.901 346.613 155.053 349.226C155.205 351.839 156.125 354.347 157.697 356.434C159.269 358.521 161.421 360.092 163.882 360.949C166.343 361.805 169.001 361.909 171.521 361.246C174.04 360.583 176.307 359.184 178.035 357.225C179.762 355.267 180.873 352.837 181.225 350.244C181.695 346.778 180.779 343.266 178.678 340.476C176.578 337.687 173.463 335.847 170.015 335.36Z" fill="#1B236D"/>
<path d="M57.6634 376.597L53.6056 373.233C81.9091 338.622 118.633 324.299 162.711 330.62L161.95 335.87C119.246 329.753 85.1046 343.057 57.6634 376.597Z" fill="#1B236D"/>
<path d="M193.246 55.3664C190.333 55.3664 187.971 52.993 187.971 50.0653C187.971 47.1375 190.333 44.7641 193.246 44.7641C196.16 44.7641 198.522 47.1375 198.522 50.0653C198.522 52.993 196.16 55.3664 193.246 55.3664Z" fill="#1B236D"/>
<path d="M172.653 50.2692C169.739 50.2692 167.378 47.8957 167.378 44.968C167.378 42.0402 169.739 39.6668 172.653 39.6668C175.566 39.6668 177.928 42.0402 177.928 44.968C177.928 47.8957 175.566 50.2692 172.653 50.2692Z" fill="#1B236D"/>
<path d="M179.348 70.5564L191.928 66.448C192.292 66.3528 192.608 66.1252 192.816 65.8093C193.023 65.4933 193.106 65.1114 193.049 64.7374C192.992 64.3633 192.8 64.0237 192.508 63.7842C192.217 63.5447 191.847 63.4222 191.471 63.4406L180.109 63.3386C179.488 63.3376 178.878 63.1799 178.334 62.8799L167.682 57.4767C167.358 57.3037 166.983 57.2538 166.626 57.3363C166.269 57.4187 165.953 57.628 165.737 57.9257C165.521 58.2233 165.42 58.5893 165.451 58.9563C165.482 59.3233 165.644 59.6668 165.907 59.9234L175.24 69.5063C175.751 70.0608 176.411 70.4549 177.14 70.6412C177.869 70.8275 178.636 70.7981 179.348 70.5564Z" fill="#1B236D"/>
<path d="M312.2 109.564H309.4L289.8 42L331.8 42L312.2 109.564Z" fill="url(#paint15_linear_6_272)"/>
<path d="M320.354 114.1C319.331 111.41 315.442 109.408 310.8 109.408C306.158 109.408 302.269 111.41 301.246 114.1H320.354Z" fill="url(#paint16_linear_6_272)"/>
<path d="M298.122 70.6868L309.4 109.564H312.2L328.125 54.6683C314.254 47.6173 313.926 71.9775 298.122 70.6868Z" fill="url(#paint17_linear_6_272)"/>
<path d="M304.758 63.9126C306.567 63.9126 308.032 62.4387 308.032 60.6205C308.032 58.8023 306.567 57.3283 304.758 57.3283C302.95 57.3283 301.484 58.8023 301.484 60.6205C301.484 62.4387 302.95 63.9126 304.758 63.9126Z" fill="url(#paint18_linear_6_272)"/>
<path d="M310.488 48.4401C311.573 48.4401 312.453 47.5558 312.453 46.465C312.453 45.3743 311.573 44.49 310.488 44.49C309.403 44.49 308.524 45.3743 308.524 46.465C308.524 47.5558 309.403 48.4401 310.488 48.4401Z" fill="url(#paint19_linear_6_272)"/>
<path d="M312.453 84.3221C313.538 84.3221 314.417 83.4378 314.417 82.347C314.417 81.2563 313.538 80.372 312.453 80.372C311.368 80.372 310.488 81.2563 310.488 82.347C310.488 83.4378 311.368 84.3221 312.453 84.3221Z" fill="url(#paint20_linear_6_272)"/>
<path d="M287.273 133.928L312.163 136.677C314.683 137.331 316.542 136.933 318.292 135.756L332.563 126.159C332.98 125.884 333.339 125.528 333.618 125.113C333.897 124.698 334.091 124.232 334.188 123.742C334.286 123.252 334.285 122.747 334.186 122.257C334.087 121.767 333.891 121.301 333.611 120.887C333.316 120.438 332.931 120.054 332.479 119.762C331.864 119.373 331.148 119.173 330.42 119.189C329.692 119.205 328.985 119.435 328.388 119.851L326.392 121.149L314.599 129.044L311 128.677L304.54 127.997C304.423 127.981 304.316 127.922 304.24 127.831C304.163 127.74 304.124 127.625 304.128 127.506C304.133 127.388 304.181 127.276 304.264 127.191C304.347 127.107 304.459 127.056 304.577 127.049L310.015 126.651C310.845 126.59 311.618 126.201 312.162 125.571C312.706 124.941 312.978 124.121 312.917 123.29C312.887 122.879 312.777 122.477 312.591 122.109C312.406 121.74 312.15 121.411 311.838 121.141C311.525 120.872 311.163 120.666 310.771 120.536C310.379 120.406 309.965 120.355 309.554 120.385L290.536 121.772L290.893 126.63L288.347 126.343L287.273 133.928Z" fill="#1B236D"/>
<path d="M255.902 174.151L284.255 128.007L295.76 135.023L267.412 181.166L255.902 174.151Z" fill="#1B236D"/>
<path d="M224.379 109.93L265.337 182.391L247.436 192.563L206.478 120.097L224.379 109.93Z" fill="#1B236D"/>
<path d="M209.736 142.645C196.308 141.808 186.105 130.205 186.946 116.728C187.787 103.252 199.355 93.0058 212.783 93.8429C226.211 94.6801 236.415 106.284 235.573 119.76C234.732 133.237 223.164 143.483 209.736 142.645Z" fill="#FCC817"/>
<path d="M257.395 160.419C261.017 160.633 264.495 161.916 267.387 164.106C270.279 166.296 272.455 169.295 273.641 172.721C274.827 176.148 274.969 179.85 274.049 183.358C273.129 186.865 271.188 190.021 268.472 192.425C265.756 194.83 262.387 196.375 258.791 196.866C255.196 197.356 251.536 196.769 248.275 195.18C245.013 193.59 242.297 191.069 240.47 187.936C238.643 184.803 237.787 181.199 238.011 177.58C238.152 175.18 238.765 172.831 239.817 170.668C240.868 168.506 242.336 166.572 244.137 164.977C245.938 163.383 248.036 162.16 250.311 161.377C252.586 160.595 254.994 160.269 257.395 160.419Z" fill="url(#paint21_linear_6_272)"/>
<path d="M281.878 131.224C281.522 126.35 285.186 122.111 290.063 121.755C294.94 121.398 299.182 125.06 299.539 129.934C299.895 134.807 296.23 139.047 291.354 139.403C286.477 139.759 282.235 136.097 281.878 131.224Z" fill="url(#paint22_linear_6_272)"/>
<path d="M111.431 193.556L117.15 216.51C117.471 219.016 118.312 220.439 119.653 221.389L130.585 229.143C130.901 229.372 131.255 229.512 131.624 229.553C131.993 229.595 132.372 229.537 132.738 229.385C133.103 229.232 133.449 228.987 133.754 228.664C134.059 228.341 134.319 227.946 134.517 227.502C134.735 227.028 134.88 226.508 134.942 225.974C135.021 225.251 134.939 224.533 134.705 223.908C134.472 223.283 134.099 222.78 133.632 222.462L132.133 221.357L123.123 214.932L122.275 211.628L120.768 205.687C120.743 205.577 120.751 205.455 120.79 205.345C120.829 205.235 120.896 205.145 120.978 205.092C121.061 205.039 121.152 205.026 121.236 205.057C121.319 205.088 121.388 205.161 121.428 205.26L123.362 209.792C123.658 210.484 124.16 210.967 124.758 211.134C125.356 211.302 126 211.141 126.551 210.687C126.823 210.462 127.065 210.171 127.261 209.832C127.457 209.492 127.604 209.111 127.693 208.709C127.783 208.307 127.813 207.893 127.782 207.489C127.751 207.086 127.66 206.702 127.514 206.359L120.755 190.508L117.536 193.169L116.956 190.818L111.431 193.556Z" fill="#1B236D"/>
<path d="M66.1716 173.886L116.156 179.014L113.548 190.275L63.5648 185.152L66.1716 173.886Z" fill="#1B236D"/>
<path d="M118.82 119.14L66.7399 175.604L52.024 165.58L104.108 109.114L118.82 119.14Z" fill="#1B236D"/>
<path d="M92.0199 119.939C88.4695 109.319 95.0007 97.0848 106.608 92.6136C118.215 88.1425 130.502 93.1274 134.052 103.748C137.603 114.368 131.072 126.602 119.465 131.074C107.858 135.545 95.5702 130.56 92.0199 119.939Z" fill="#FCC817"/>
<path d="M78.2901 161.311C79.2893 164.22 79.3343 167.436 78.4194 170.551C77.5044 173.667 75.6708 176.542 73.1505 178.812C70.6302 181.083 67.5366 182.647 64.2613 183.307C60.9861 183.967 57.6765 183.693 54.7514 182.519C51.8264 181.346 49.4175 179.325 47.8296 176.714C46.2418 174.103 45.5464 171.018 45.8315 167.851C46.1167 164.683 47.3695 161.575 49.4314 158.92C51.4933 156.265 54.2716 154.182 57.4145 152.935C59.4964 152.102 61.6887 151.658 63.8659 151.629C66.0431 151.599 68.1622 151.985 70.1017 152.763C72.0412 153.541 73.7629 154.697 75.168 156.164C76.5732 157.631 77.6342 159.38 78.2901 161.311Z" fill="url(#paint23_linear_6_272)"/>
<path d="M112.669 185.323C116.674 183.009 121.541 184.119 123.54 187.802C125.539 191.485 123.913 196.347 119.907 198.66C115.902 200.974 111.035 199.864 109.036 196.181C107.037 192.498 108.664 187.636 112.669 185.323Z" fill="url(#paint24_linear_6_272)"/>
<path d="M369.459 120.856C331.4 121.809 293.985 121.804 257.205 120.856C255.524 104.077 255.275 88.1554 257.205 73.5385C294.624 72.8629 332.042 72.8629 369.459 73.5385C371.588 88.8174 371.438 104.624 369.459 120.856Z" fill="#EFEFEF"/>
<defs>
<linearGradient id="paint0_linear_6_272" x1="484.975" y1="349.911" x2="498.479" y2="349.911" gradientUnits="userSpaceOnUse">
<stop offset="0.0898" stop-color="#7DE2D1"/>
<stop offset="0.8178" stop-color="#339989"/>
</linearGradient>
<linearGradient id="paint1_linear_6_272" x1="439.924" y1="349.911" x2="453.429" y2="349.911" gradientUnits="userSpaceOnUse">
<stop offset="0.0898" stop-color="#7DE2D1"/>
<stop offset="0.8178" stop-color="#339989"/>
</linearGradient>
<linearGradient id="paint2_linear_6_272" x1="398.395" y1="349.911" x2="384.891" y2="349.911" gradientUnits="userSpaceOnUse">
<stop offset="0.0898" stop-color="#7DE2D1"/>
<stop offset="0.8178" stop-color="#339989"/>
</linearGradient>
<linearGradient id="paint3_linear_6_272" x1="355.104" y1="349.911" x2="341.6" y2="349.911" gradientUnits="userSpaceOnUse">
<stop offset="0.0898" stop-color="#EEEEEE"/>
<stop offset="0.8178" stop-color="#D6D7D8"/>
</linearGradient>
<linearGradient id="paint4_linear_6_272" x1="497.014" y1="301.873" x2="414.114" y2="287.732" gradientUnits="userSpaceOnUse">
<stop offset="0.0898" stop-color="#7DE2D1"/>
<stop offset="0.8178" stop-color="#339989"/>
</linearGradient>
<linearGradient id="paint5_linear_6_272" x1="497.553" y1="249.404" x2="428.296" y2="222.707" gradientUnits="userSpaceOnUse">
<stop offset="0.0898" stop-color="#7DE2D1"/>
<stop offset="0.8178" stop-color="#339989"/>
</linearGradient>
<linearGradient id="paint6_linear_6_272" x1="387.583" y1="283.514" x2="348.919" y2="284.635" gradientUnits="userSpaceOnUse">
<stop offset="0.0898" stop-color="#7DE2D1"/>
<stop offset="0.8178" stop-color="#339989"/>
</linearGradient>
<linearGradient id="paint7_linear_6_272" x1="307.663" y1="378.727" x2="367.953" y2="310.576" gradientUnits="userSpaceOnUse">
<stop stop-color="#3E8AF8"/>
<stop offset="0.4648" stop-color="#2A82F5"/>
<stop offset="1" stop-color="#1479F2"/>
</linearGradient>
<linearGradient id="paint8_linear_6_272" x1="450.079" y1="181.525" x2="450.079" y2="162.539" gradientUnits="userSpaceOnUse">
<stop stop-color="#FFBEB6"/>
<stop offset="1" stop-color="#F2A19C"/>
</linearGradient>
<linearGradient id="paint9_linear_6_272" x1="476.874" y1="177.436" x2="461.291" y2="269.302" gradientUnits="userSpaceOnUse">
<stop stop-color="#23286B"/>
<stop offset="1" stop-color="#151A4F"/>
</linearGradient>
<linearGradient id="paint10_linear_6_272" x1="304.5" y1="389.584" x2="371.57" y2="389.584" gradientUnits="userSpaceOnUse">
<stop stop-color="#28306D"/>
<stop offset="0.51" stop-color="#1F275F"/>
<stop offset="1" stop-color="#171F51"/>
</linearGradient>
<linearGradient id="paint11_linear_6_272" x1="135.895" y1="356.895" x2="242.191" y2="371.433" gradientUnits="userSpaceOnUse">
<stop stop-color="#EFEFEF"/>
<stop offset="0.55" stop-color="#D7D8D9"/>
</linearGradient>
<linearGradient id="paint12_linear_6_272" x1="-3786.39" y1="-858778" x2="-12271.1" y2="-858778" gradientUnits="userSpaceOnUse">
<stop stop-color="#EFEFEF"/>
<stop offset="0.55" stop-color="#D7D8D9"/>
</linearGradient>
<linearGradient id="paint13_linear_6_272" x1="239.192" y1="120.561" x2="131.945" y2="181.912" gradientUnits="userSpaceOnUse">
<stop stop-color="#A1C3FC"/>
<stop offset="0.7" stop-color="#81AEF2"/>
<stop offset="1" stop-color="#78A9EF"/>
</linearGradient>
<linearGradient id="paint14_linear_6_272" x1="-453122" y1="-1.61975e+06" x2="-462995" y2="-1.62008e+06" gradientUnits="userSpaceOnUse">
<stop stop-color="#A1C3FC"/>
<stop offset="0.7" stop-color="#81AEF2"/>
<stop offset="1" stop-color="#78A9EF"/>
</linearGradient>
<linearGradient id="paint15_linear_6_272" x1="289.8" y1="75.7822" x2="331.8" y2="75.7822" gradientUnits="userSpaceOnUse">
<stop stop-color="#A1C3FC"/>
<stop offset="1" stop-color="#78A9EF"/>
</linearGradient>
<linearGradient id="paint16_linear_6_272" x1="301.246" y1="111.754" x2="320.353" y2="111.754" gradientUnits="userSpaceOnUse">
<stop stop-color="#428DFC"/>
<stop offset="1" stop-color="#1D72D8"/>
</linearGradient>
<linearGradient id="paint17_linear_6_272" x1="298.122" y1="81.4746" x2="328.125" y2="81.4746" gradientUnits="userSpaceOnUse">
<stop stop-color="#428DFC"/>
<stop offset="1" stop-color="#1D72D8"/>
</linearGradient>
<linearGradient id="paint18_linear_6_272" x1="301.484" y1="60.6203" x2="308.033" y2="60.6203" gradientUnits="userSpaceOnUse">
<stop stop-color="#428DFC"/>
<stop offset="1" stop-color="#1D72D8"/>
</linearGradient>
<linearGradient id="paint19_linear_6_272" x1="308.524" y1="46.465" x2="312.453" y2="46.465" gradientUnits="userSpaceOnUse">
<stop stop-color="#428DFC"/>
<stop offset="1" stop-color="#1D72D8"/>
</linearGradient>
<linearGradient id="paint20_linear_6_272" x1="310.488" y1="82.3471" x2="314.417" y2="82.3471" gradientUnits="userSpaceOnUse">
<stop stop-color="#A1C3FC"/>
<stop offset="1" stop-color="#78A9EF"/>
</linearGradient>
<linearGradient id="paint21_linear_6_272" x1="241.816" y1="197.745" x2="278.295" y2="196.717" gradientUnits="userSpaceOnUse">
<stop stop-color="#EFEFEF"/>
<stop offset="0.55" stop-color="#D7D8D9"/>
</linearGradient>
<linearGradient id="paint22_linear_6_272" x1="14671.7" y1="210990" x2="14074.8" y2="211034" gradientUnits="userSpaceOnUse">
<stop stop-color="#EFEFEF"/>
<stop offset="0.55" stop-color="#D7D8D9"/>
</linearGradient>
<linearGradient id="paint23_linear_6_272" x1="41.5498" y1="163.822" x2="55.1949" y2="191.429" gradientUnits="userSpaceOnUse">
<stop stop-color="#EFEFEF"/>
<stop offset="0.55" stop-color="#D7D8D9"/>
</linearGradient>
<linearGradient id="paint24_linear_6_272" x1="-173540" y1="99485.3" x2="-173796" y2="99041.4" gradientUnits="userSpaceOnUse">
<stop stop-color="#EFEFEF"/>
<stop offset="0.55" stop-color="#D7D8D9"/>
</linearGradient>
</defs>
</svg>