<svg width="560" height="560" viewBox="0 0 560 560" fill="none" xmlns="http://www.w3.org/2000/svg">
<path d="M439.568 443.822L446.735 441.582C447.311 441.198 447.951 440.942 448.527 440.431L437.393 444.014C438.161 443.95 438.864 443.95 439.568 443.822ZM434.513 443.822L450.702 438.575C451.022 438.319 451.214 437.999 451.534 437.743L433.425 443.502C433.809 443.694 434.193 443.757 434.513 443.822ZM431.698 443.118L452.878 436.335C453.134 436.144 453.198 435.887 453.454 435.631L431.122 442.734C431.314 442.99 431.506 442.99 431.698 443.118ZM430.034 442.03L454.35 434.223C454.477 434.032 454.606 433.776 454.733 433.583L429.65 441.646C429.714 441.838 429.906 441.966 430.034 442.03ZM428.818 440.814L455.31 432.367C455.437 432.175 455.437 431.983 455.566 431.727L428.499 440.429C428.69 440.558 428.754 440.75 428.818 440.814ZM428.05 439.534L456.205 430.576C456.205 430.384 456.333 430.192 456.333 429.936L427.794 439.086C427.859 439.214 427.922 439.407 428.05 439.534ZM427.346 438.126L456.589 428.72C456.589 428.528 456.653 428.336 456.717 428.08L427.154 437.486C427.219 437.806 427.282 437.935 427.346 438.126ZM426.835 436.719L456.973 427.057C456.973 426.865 457.037 426.673 457.037 426.481L426.642 436.271C426.706 436.335 426.771 436.527 426.835 436.719ZM426.579 434.991C426.642 435.055 426.515 435.119 426.579 435.183L457.229 425.393C457.229 425.201 457.293 425.009 457.293 424.817L426.77 434.543C426.706 434.671 426.642 434.799 426.579 434.991ZM428.178 432.816C428.114 432.879 428.05 433.008 427.922 433.008L457.293 423.602C457.293 423.409 457.229 423.281 457.293 423.09L428.69 432.304C428.434 432.496 428.306 432.688 428.178 432.816ZM429.586 430.96L457.037 422.194C457.037 422.001 456.973 421.874 456.909 421.682L429.842 430.384C429.842 430.576 429.714 430.704 429.586 430.96ZM430.482 429.04L456.91 420.593C456.846 420.402 456.846 420.273 456.782 420.082L430.738 428.464C430.546 428.72 430.546 428.912 430.482 429.04ZM430.93 427.312L456.525 419.186C456.461 418.993 456.397 418.929 456.397 418.674L431.122 426.801C430.994 426.993 430.93 427.121 430.93 427.312ZM431.058 425.649L455.949 417.714C455.885 417.523 455.821 417.458 455.757 417.267L430.994 425.137C431.058 425.329 431.058 425.521 431.058 425.649ZM430.93 424.049L455.118 416.306C455.054 416.115 454.99 416.05 454.926 415.859L430.866 423.537C430.93 423.729 430.93 423.985 430.93 424.049ZM430.61 422.578L454.222 414.963C454.158 414.771 453.966 414.643 453.902 414.579L430.354 422.13C430.482 422.321 430.546 422.449 430.61 422.578ZM452.75 413.363L429.778 420.657C429.842 420.849 429.906 420.913 429.97 421.105L453.134 413.682C453.134 413.619 452.942 413.491 452.75 413.363ZM451.406 412.211L429.01 419.378C429.074 419.57 429.266 419.698 429.33 419.762L451.918 412.531C451.726 412.531 451.534 412.339 451.406 412.211ZM449.615 411.187L428.243 417.97C428.306 418.162 428.37 418.226 428.435 418.418L450.255 411.379C449.999 411.379 449.87 411.252 449.615 411.187ZM447.375 410.355C447.311 410.419 447.247 410.292 447.183 410.355L428.307 416.37C428.243 416.498 428.243 416.754 428.243 416.947L448.207 410.548C447.887 410.548 447.631 410.419 447.375 410.355ZM442.576 410.164L430.354 414.067C429.97 414.387 429.522 414.643 429.138 414.962L444.623 410.035C443.984 410.1 443.216 410.1 442.576 410.164Z" fill="#E6E6E6"/>
<path d="M475.786 335.297C476.681 337.984 475.658 340.864 474.314 343.36C470.666 350.206 464.78 355.837 457.741 359.101C453.838 360.957 449.614 362.045 445.583 363.708C433.874 368.571 424.339 378.297 419.796 390.136C421.14 381.945 416.852 373.818 411.605 367.356C406.422 360.893 400.151 355.07 396.44 347.647C393.241 341.248 393.177 331.778 399.64 328.706C404.375 326.466 410.326 328.962 415.189 326.914C416.917 326.146 418.453 324.611 418.389 322.755C418.132 318.019 408.79 318.34 408.535 313.605C408.278 308.165 422.612 309.766 420.757 304.582C419.989 302.407 416.917 301.767 415.893 299.719C414.806 297.672 414.869 294.792 416.725 293.32C419.093 291.401 422.676 292.936 425.684 292.233C429.075 291.465 431.251 288.009 431.955 284.554C432.659 281.099 432.275 277.579 432.786 274.124C434.002 265.613 440.977 258.255 449.359 256.463C457.741 254.671 467.084 258.639 471.627 265.933C473.483 268.941 474.507 272.972 472.523 275.851C470.795 278.283 467.084 279.883 467.403 282.826C467.787 286.858 475.274 287.242 475.402 291.273C475.529 296.008 465.803 296.008 466.059 300.743C466.187 302.855 468.427 304.071 469.771 305.734C472.33 308.805 471.306 314.116 467.787 316.036C466.379 316.804 464.716 317.124 463.628 318.212C460.812 320.963 463.564 325.826 466.892 327.874C470.219 329.922 474.57 331.522 475.786 335.297Z" fill="url(#paint0_linear_6_571)"/>
<path d="M451.214 335.617C453.198 334.529 455.31 333.505 456.909 331.842C460.173 328.258 459.981 322.883 460.237 318.02C460.493 313.157 462.22 307.462 466.892 306.182C470.795 305.094 475.722 307.461 478.601 304.646C479.689 303.622 480.137 302.087 480.905 300.807C484.232 295.24 492.999 295.688 497.862 299.975C502.661 304.262 504.517 310.917 506.116 317.188C506.693 319.492 506.756 322.692 504.517 323.331C502.341 323.907 500.165 321.219 498.118 322.051C496.455 322.692 496.326 325.059 496.966 326.787C497.542 328.45 498.566 330.178 498.182 331.97C497.414 335.298 492.743 335.489 489.416 334.594C486.088 333.698 481.801 332.802 479.882 335.681C481.993 342.4 483.785 350.591 479.05 355.902C473.611 361.981 463.565 361.341 455.438 362.109C440.337 363.517 429.65 375.034 421.14 387.64C420.627 366.523 432.722 345.663 451.214 335.617Z" fill="url(#paint1_linear_6_571)"/>
<path d="M432.273 378.041C432.21 378.041 432.21 378.041 432.146 378.041C431.953 377.977 431.89 377.785 431.953 377.657C439.632 354.173 451.854 337.857 474.186 321.412C478.345 318.34 490.887 313.157 496.326 312.709C496.454 312.709 496.646 312.837 496.646 313.029C496.646 313.222 496.518 313.349 496.326 313.349C491.143 313.797 478.538 318.98 474.57 321.924C452.302 338.305 440.144 354.494 432.53 377.85C432.53 377.914 432.402 378.041 432.273 378.041Z" fill="white"/>
<path d="M444.112 309.189L441.552 302.15C440.656 302.087 439.696 302.214 438.801 302.534L441.552 310.085C441.68 310.533 441.488 310.981 441.04 311.109C440.592 311.237 440.145 311.045 440.016 310.597L437.265 303.174C436.433 303.686 435.729 304.39 435.153 305.158L437.457 311.429C437.584 311.877 437.393 312.325 436.945 312.453C436.497 312.581 436.049 312.389 435.921 311.941L434.129 307.014C433.105 309.574 433.041 312.837 434.193 316.037C434.193 316.1 434.257 316.164 434.257 316.229C433.681 316.549 433.041 316.933 432.529 317.381C430.929 318.532 428.881 320.516 428.177 323.332L428.945 323.524C429.585 320.964 431.505 319.108 432.977 318.085C433.488 317.701 434.001 317.381 434.576 317.061C435.792 319.748 437.775 321.924 439.951 323.075L438.223 318.405C438.096 317.957 438.287 317.509 438.735 317.381C439.183 317.252 439.631 317.444 439.759 317.892L441.999 323.907C442.959 324.163 443.918 324.227 444.878 324.035L442.319 316.996C442.191 316.548 442.383 316.1 442.83 315.972C443.278 315.844 443.726 316.036 443.854 316.484L446.478 323.587C447.31 323.203 448.077 322.626 448.718 321.987L446.35 315.588C446.222 315.14 446.414 314.693 446.862 314.564C447.31 314.436 447.757 314.628 447.886 315.076L449.933 320.579C450.573 319.619 451.149 318.596 451.661 317.508L450.382 314.053C450.254 313.605 450.445 313.157 450.893 313.029C451.341 312.901 451.789 313.092 451.917 313.54L452.621 315.396C453.901 312.325 454.733 309.317 455.821 308.357C454.029 307.973 451.534 306.31 448.782 304.773L449.678 307.141C449.805 307.589 449.614 308.036 449.166 308.165C448.718 308.293 448.27 308.101 448.142 307.653L446.67 303.622C445.582 303.11 444.494 302.726 443.407 302.47L445.646 308.677C445.774 309.125 445.582 309.573 445.134 309.701C444.752 309.829 444.303 309.637 444.112 309.189Z" fill="white"/>
<path d="M317.543 387.575H246.131V466.985H317.543V387.575Z" fill="#D6D7D8"/>
<path d="M361.758 464.426H201.914V470.569H361.758V464.426Z" fill="#7DE2D1"/>
<path d="M438.672 235.73H125V438.83H438.672V235.73Z" fill="url(#paint2_linear_6_571)"/>
<path d="M433.169 240.786H130.503V408.052H433.169V240.786Z" fill="white"/>
<path d="M266.471 423.754L270.588 427.871L274.706 423.754L270.588 419.637L266.471 423.754Z" fill="#7DE2D1"/>
<path d="M277.703 423.745L281.82 427.862L285.937 423.745L281.82 419.628L277.703 423.745Z" fill="white"/>
<path d="M288.935 423.762L293.052 427.879L297.169 423.762L293.052 419.645L288.935 423.762Z" fill="#7DE2D1"/>
<path d="M432.337 211.991C432.337 212.119 432.337 212.247 432.337 212.375C432.337 217.686 436.624 221.973 441.936 221.973C447.247 221.973 451.535 217.686 451.535 212.375C451.535 212.247 451.535 212.119 451.535 211.991H432.337Z" fill="#D3E3FE"/>
<path d="M466.699 188.635C466.699 188.827 466.699 189.082 466.699 189.275C466.699 198.041 473.802 205.144 482.568 205.144C491.335 205.144 498.437 198.041 498.437 189.275C498.437 189.082 498.437 188.827 498.437 188.635C498.438 188.635 466.699 188.635 466.699 188.635Z" fill="#7DE2D1"/>
<path d="M64.3388 171.998C64.3388 172.382 64.3388 172.702 64.3388 173.086C64.3388 187.867 76.3686 199.897 91.1503 199.897C105.932 199.897 117.962 187.867 117.962 173.086C117.962 172.702 117.962 172.382 117.962 171.998C117.961 171.998 64.3388 171.998 64.3388 171.998Z" fill="#F4F4F4"/>
<path d="M92.4299 171.998C92.4299 172.254 92.4299 172.509 92.4299 172.766C92.4299 183.516 101.132 192.218 111.883 192.218C122.633 192.218 131.335 183.516 131.335 172.766C131.335 172.509 131.335 172.254 131.335 171.998H92.4299Z" fill="#E7EFFE"/>
<path d="M81.1679 428.209C81.0401 431.024 82.7675 433.583 84.7515 435.631C90.1264 441.326 97.3575 445.23 105.036 446.509C109.323 447.213 113.738 447.213 118.09 447.725C130.759 449.325 142.597 456.236 150.212 466.474C146.693 458.859 148.74 449.837 152.068 442.158C155.395 434.48 159.938 427.185 161.538 418.994C162.946 411.955 160.45 402.677 153.347 401.461C148.1 400.565 142.981 404.596 137.734 403.828C135.878 403.572 133.895 402.484 133.511 400.629C132.487 395.958 141.701 393.782 140.614 389.11C139.398 383.736 125.896 389.11 126.344 383.671C126.536 381.368 129.288 379.96 129.799 377.656C130.311 375.353 129.479 372.601 127.304 371.705C124.488 370.49 121.416 372.921 118.345 373.049C114.826 373.241 111.819 370.426 110.218 367.29C108.618 364.155 108.043 360.572 106.635 357.372C103.18 349.438 94.4772 344.127 85.8382 344.639C77.1998 345.15 69.2014 351.485 66.7056 359.804C65.6817 363.195 65.7456 367.418 68.4974 369.722C70.801 371.641 74.8324 372.153 75.3441 375.097C76.048 379.128 68.8814 381.495 69.8409 385.463C70.9287 390.134 80.4628 387.51 81.4229 392.182C81.8707 394.294 80.015 396.085 79.1832 398.005C77.5198 401.653 79.9511 406.516 83.8541 407.475C85.3898 407.859 87.1177 407.667 88.525 408.435C91.9803 410.355 90.6369 415.794 87.9489 418.673C85.1354 421.617 81.424 424.241 81.1679 428.209Z" fill="url(#paint3_linear_6_571)"/>
<path d="M105.228 422.001C102.988 421.49 100.684 421.041 98.7009 419.826C94.5417 417.202 93.3261 411.891 91.7904 407.284C90.2547 402.677 87.055 397.558 82.1919 397.558C78.0966 397.558 73.9374 401.205 70.4182 399.221C69.0742 398.453 68.2425 397.109 67.1546 396.086C62.4837 391.607 54.037 394.358 50.5178 399.797C46.9987 405.237 46.9987 412.211 47.0626 418.738C47.1264 421.106 47.8943 424.242 50.2623 424.242C52.5019 424.242 53.9098 421.042 56.1494 421.298C57.9412 421.49 58.709 423.794 58.5807 425.585C58.4529 427.377 57.9406 429.296 58.7729 430.896C60.3725 433.967 65.044 432.879 67.9875 431.088C70.9311 429.296 74.898 427.312 77.5216 429.616C77.2654 436.719 77.7138 445.165 83.7287 449.004C90.6392 453.42 100.238 450.156 108.301 448.748C123.338 446.061 136.839 454.443 148.421 464.426C143.109 443.822 125.832 426.801 105.228 422.001Z" fill="url(#paint4_linear_6_571)"/>
<path d="M150.02 467.434C144.901 454.06 140.805 440.303 137.67 426.353" stroke="#7DE2D1" stroke-width="3.14" stroke-miterlimit="10" stroke-linecap="round"/>
<path d="M144.657 423.309C144.317 421.828 140.859 421.358 136.932 422.258C133.005 423.158 130.097 425.089 130.437 426.57C130.777 428.051 134.235 428.522 138.162 427.621C142.089 426.721 144.996 424.79 144.657 423.309Z" fill="#23286B"/>
<path d="M137.286 424.689C135.558 416.754 134.151 408.82 133.063 400.757" stroke="#7DE2D1" stroke-width="3.14" stroke-miterlimit="10" stroke-linecap="round"/>
<path d="M141.117 396.12C140.545 394.411 136.359 394.271 131.768 395.808C127.177 397.344 123.918 399.976 124.49 401.685C125.062 403.394 129.248 403.534 133.84 401.997C138.431 400.461 141.69 397.829 141.117 396.12Z" fill="#23286B"/>
<path d="M132.743 398.646C131.911 391.991 131.271 385.336 130.823 378.681" stroke="#7DE2D1" stroke-width="3.14" stroke-miterlimit="10" stroke-linecap="round"/>
<path d="M140.026 376.287C140.007 374.485 136.067 373.066 131.226 373.117C126.385 373.169 122.476 374.671 122.496 376.473C122.515 378.275 126.455 379.694 131.295 379.643C136.136 379.591 140.045 378.089 140.026 376.287Z" fill="#23286B"/>
<path d="M130.695 375.866C130.439 370.811 130.311 365.691 130.247 360.572" stroke="#7DE2D1" stroke-width="3.14" stroke-miterlimit="10" stroke-linecap="round"/>
<path d="M142.074 357.827C142.048 355.389 136.757 353.468 130.255 353.537C123.753 353.606 118.503 355.638 118.529 358.076C118.555 360.514 123.847 362.435 130.349 362.366C136.85 362.297 142.1 360.265 142.074 357.827Z" fill="#23286B"/>
<path d="M130.247 357.117C130.311 353.726 130.375 350.334 130.503 346.943" stroke="#7DE2D1" stroke-width="3.14" stroke-miterlimit="10" stroke-linecap="round"/>
<path d="M123.017 448.493L125.576 441.454C126.472 441.39 127.432 441.518 128.328 441.838L125.576 449.388C125.448 449.836 125.64 450.284 126.088 450.412C126.536 450.541 126.984 450.349 127.112 449.901L129.863 442.478C130.695 442.99 131.399 443.694 131.975 444.461L129.672 450.732C129.544 451.18 129.735 451.628 130.183 451.756C130.631 451.885 131.079 451.693 131.207 451.245L132.999 446.318C134.023 448.877 134.087 452.141 132.935 455.34C132.935 455.404 132.871 455.468 132.871 455.532C133.447 455.852 134.087 456.236 134.599 456.684C136.199 457.836 138.247 459.819 138.951 462.635L138.183 462.827C137.543 460.268 135.623 458.412 134.151 457.388C133.64 457.004 133.127 456.684 132.552 456.364C131.336 459.051 129.352 461.227 127.177 462.379L128.905 457.708C129.033 457.26 128.841 456.812 128.393 456.684C127.945 456.556 127.498 456.748 127.369 457.196L125.13 463.211C124.17 463.467 123.21 463.531 122.25 463.338L124.81 456.3C124.937 455.852 124.746 455.404 124.298 455.276C123.85 455.147 123.402 455.339 123.274 455.787L120.65 462.89C119.819 462.506 119.051 461.93 118.411 461.29L120.778 454.892C120.906 454.444 120.714 453.996 120.266 453.868C119.819 453.74 119.371 453.932 119.242 454.379L117.195 459.883C116.555 458.922 115.979 457.899 115.467 456.811L116.747 453.356C116.875 452.908 116.683 452.46 116.235 452.332C115.787 452.204 115.339 452.396 115.211 452.844L114.507 454.699C113.228 451.628 112.395 448.621 111.307 447.661C113.099 447.277 115.594 445.613 118.346 444.077L117.451 446.444C117.323 446.892 117.515 447.34 117.962 447.468C118.41 447.597 118.858 447.404 118.986 446.957L120.458 442.925C121.546 442.413 122.634 442.03 123.722 441.773L121.482 447.981C121.354 448.428 121.546 448.876 121.994 449.005C122.377 449.133 122.824 448.941 123.017 448.493Z" fill="white"/>
<path d="M109.387 243.985L104.588 243.409C104.14 243.473 103.692 243.473 103.244 243.601L110.731 244.433C110.219 244.305 109.835 244.113 109.387 243.985ZM112.33 245.329L101.452 244.113C101.196 244.177 101.004 244.306 100.748 244.369L112.906 245.777C112.714 245.585 112.523 245.457 112.33 245.329ZM113.802 246.481L99.5966 244.881C99.4043 244.945 99.2765 245.073 99.0849 245.137L114.058 246.865C113.994 246.672 113.866 246.609 113.802 246.481ZM114.506 247.569L98.1887 245.713C98.0609 245.777 97.9325 245.905 97.8048 245.969L114.634 247.889C114.634 247.76 114.57 247.632 114.506 247.569ZM114.89 248.592L97.1014 246.545C96.9736 246.609 96.9091 246.737 96.7814 246.865L114.954 248.912C114.89 248.784 114.89 248.656 114.89 248.592ZM115.018 249.552L96.1419 247.376C96.078 247.504 95.9496 247.569 95.8858 247.696L115.018 249.872C115.018 249.808 115.018 249.68 115.018 249.552ZM115.018 250.576L95.3741 248.336C95.3102 248.464 95.2463 248.529 95.1179 248.656L114.954 250.96C115.018 250.768 115.018 250.704 115.018 250.576ZM114.954 251.536L94.7334 249.232C94.6695 249.36 94.6056 249.424 94.5412 249.552L114.953 251.856C114.954 251.792 114.954 251.664 114.954 251.536ZM114.634 252.623C114.634 252.56 114.698 252.56 114.698 252.496L94.1578 250.128C94.0939 250.256 94.0301 250.32 93.9656 250.448L114.442 252.816C114.506 252.752 114.57 252.687 114.634 252.623ZM113.163 253.455C113.227 253.455 113.29 253.391 113.355 253.391L93.6461 251.152C93.5822 251.279 93.5823 251.344 93.5184 251.472L112.715 253.647C112.906 253.583 113.034 253.52 113.163 253.455ZM111.819 254.159L93.39 252.047C93.3261 252.175 93.3261 252.239 93.3261 252.367L111.499 254.415C111.562 254.351 111.691 254.287 111.819 254.159ZM110.795 255.055L93.07 253.008C93.07 253.136 93.0061 253.2 93.0061 253.328L110.475 255.311C110.667 255.247 110.731 255.119 110.795 255.055ZM110.091 255.951L92.9416 253.967C92.9416 254.095 92.9416 254.16 92.8777 254.287L109.835 256.207C109.963 256.143 110.027 256.079 110.091 255.951ZM109.579 256.911L92.8777 254.991C92.8777 255.119 92.8777 255.184 92.8777 255.311L109.451 257.231C109.451 257.103 109.515 256.975 109.579 256.911ZM109.195 257.87L92.9422 256.015C92.9422 256.143 92.9422 256.207 92.9422 256.335L109.067 258.19C109.131 258.063 109.195 257.934 109.195 257.87ZM109.003 258.831L93.1339 257.039C93.1339 257.167 93.1977 257.295 93.1977 257.359L109.003 259.151C109.003 259.022 109.003 258.894 109.003 258.831ZM93.5817 258.383L109.003 260.175C109.003 260.047 109.003 259.982 109.003 259.855L93.4533 258.063C93.4539 258.127 93.5178 258.254 93.5817 258.383ZM94.0939 259.406L109.131 261.134C109.131 261.006 109.067 260.878 109.067 260.814L93.9023 259.086C93.9656 259.151 94.0301 259.278 94.0939 259.406ZM94.8618 260.494L109.195 262.157C109.195 262.03 109.195 261.965 109.195 261.837L94.5417 260.174C94.6695 260.238 94.7334 260.366 94.8618 260.494ZM95.9496 261.582C96.0135 261.582 96.0135 261.646 96.0774 261.646L108.747 263.118C108.811 263.054 108.875 262.925 108.94 262.797L95.5657 261.262C95.6935 261.326 95.8213 261.454 95.9496 261.582ZM98.701 262.926L106.892 263.886C107.212 263.822 107.532 263.758 107.852 263.694L97.4853 262.478C97.8692 262.606 98.317 262.797 98.701 262.926Z" fill="#7DE2D1"/>
<path d="M447.887 455.723L455.374 456.043C456.078 455.915 456.781 455.851 457.421 455.595L445.711 455.212C446.543 455.339 447.183 455.595 447.887 455.723ZM443.152 453.996L460.172 454.572C460.556 454.444 460.812 454.252 461.26 454.06L442.255 453.356C442.576 453.676 442.832 453.868 443.152 453.996ZM440.784 452.396L462.988 453.164C463.308 453.036 463.436 452.844 463.756 452.716L440.336 451.82C440.464 452.14 440.656 452.204 440.784 452.396ZM439.505 450.796L465.036 451.692C465.228 451.564 465.42 451.372 465.612 451.244L439.313 450.284C439.312 450.54 439.44 450.732 439.505 450.796ZM438.801 449.261L466.636 450.285C466.828 450.157 466.892 449.964 467.083 449.773L438.672 448.749C438.801 448.941 438.801 449.133 438.801 449.261ZM438.481 447.789L467.98 448.877C468.043 448.684 468.236 448.557 468.363 448.365L438.417 447.277C438.481 447.405 438.481 447.597 438.481 447.789ZM438.353 446.189L469.067 447.341C469.131 447.149 469.259 447.021 469.451 446.829L438.417 445.614C438.353 445.933 438.353 445.997 438.353 446.189ZM438.353 444.717L469.963 445.869C470.027 445.677 470.155 445.549 470.219 445.357L438.289 444.206C438.353 444.334 438.353 444.525 438.353 444.717ZM438.737 442.99C438.737 443.117 438.673 443.117 438.673 443.182L470.795 444.397C470.859 444.206 470.988 444.077 471.051 443.886L439.057 442.67C438.928 442.798 438.801 442.862 438.737 442.99ZM440.912 441.518C440.784 441.518 440.72 441.645 440.592 441.645L471.434 442.733C471.498 442.542 471.498 442.413 471.626 442.222L441.616 441.134C441.296 441.262 441.104 441.39 440.912 441.518ZM442.896 440.238L471.691 441.326C471.755 441.134 471.755 441.006 471.755 440.814L443.344 439.79C443.28 439.918 443.088 440.046 442.896 440.238ZM444.368 438.766L472.075 439.79C472.075 439.598 472.139 439.47 472.139 439.279L444.816 438.319C444.559 438.446 444.496 438.639 444.368 438.766ZM445.391 437.295L472.203 438.319C472.203 438.127 472.203 437.999 472.266 437.807L445.775 436.847C445.52 436.975 445.455 437.103 445.391 437.295ZM446.031 435.759L472.139 436.719C472.139 436.527 472.139 436.399 472.075 436.207L446.16 435.183C446.223 435.439 446.159 435.631 446.031 435.759ZM446.543 434.223L471.946 435.183C471.946 434.992 471.946 434.863 471.883 434.672L446.671 433.712C446.607 433.903 446.543 434.096 446.543 434.223ZM446.735 432.688L471.563 433.583C471.563 433.392 471.435 433.199 471.435 433.072L446.735 432.176C446.671 432.368 446.735 432.559 446.735 432.688ZM470.667 431.536L446.544 430.576C446.544 430.768 446.544 430.896 446.607 431.087L470.923 431.983C470.923 431.92 470.795 431.728 470.667 431.536ZM469.771 430L446.287 429.105C446.287 429.296 446.415 429.489 446.415 429.616L470.154 430.512C469.963 430.384 469.899 430.192 469.771 430ZM468.427 428.4L446.031 427.504C446.031 427.697 446.031 427.824 446.095 428.016L469.003 428.848C468.747 428.784 468.619 428.592 468.427 428.4ZM466.636 426.864C466.508 426.864 466.508 426.801 466.443 426.801L446.607 426.033C446.543 426.16 446.415 426.353 446.351 426.544L467.275 427.312C467.019 427.248 466.828 427.057 466.636 426.864ZM462.22 425.137L449.423 424.625C448.911 424.753 448.462 424.882 447.951 425.009L464.14 425.649C463.5 425.521 462.796 425.265 462.22 425.137Z" fill="#7DE2D1"/>
<path d="M282.23 258.897C295.204 258.289 307.107 262.107 316.018 268.802C323.669 251.479 328.006 228.131 327.251 202.649C325.708 150.69 277.833 110.751 277.833 110.751C277.833 110.751 232.459 155.055 234.002 207.015C234.758 232.498 240.466 255.374 249.124 271.935C257.612 264.424 269.256 259.504 282.23 258.897Z" fill="url(#paint5_linear_6_571)"/>
<path d="M292.779 183.314C296.255 183.16 299.566 183.795 302.539 185.057C298.718 177.851 290.911 173.108 282.041 173.499C269.696 174.045 259.969 184.33 260.314 196.474C260.562 205.199 265.943 212.508 273.532 215.73C272.036 212.907 271.151 209.707 271.053 206.288C270.708 194.145 280.436 183.859 292.779 183.314Z" fill="#EFEFEF"/>
<path d="M304.73 195.11C304.634 191.696 303.75 188.499 302.253 185.678C299.279 184.416 295.964 183.781 292.487 183.933C280.132 184.473 270.392 194.744 270.732 206.873C270.829 210.287 271.712 213.484 273.21 216.305C276.184 217.567 279.499 218.202 282.976 218.05C295.332 217.51 305.071 207.239 304.73 195.11Z" fill="white"/>
<path d="M317.817 211.668L310.764 270.829L339.938 290.134C341.778 254.831 333.951 229.124 317.817 211.668Z" fill="#E94A47"/>
<path d="M243.029 211.026L253.454 268.367L225.048 289.918C221.222 255.487 227.698 229.588 243.029 211.026Z" fill="#E94A47"/>
<path d="M283.077 116.717C282.906 116.83 282.705 116.899 282.488 116.908C281.843 116.937 281.302 116.425 281.281 115.767L280.034 76.7691C280.014 76.1099 280.522 75.5526 281.165 75.5243C281.81 75.4961 282.351 76.0075 282.372 76.6659L283.62 115.664C283.633 116.103 283.414 116.495 283.077 116.717Z" fill="#E94A47"/>
<path d="M318.794 346.357C318.763 346.377 318.728 346.393 318.691 346.403C318.483 346.464 318.27 346.341 318.215 346.127C313.675 328.639 308.625 313.034 301.842 295.531C301.763 295.326 301.86 295.091 302.059 295.004C302.259 294.919 302.486 295.015 302.566 295.219C309.361 312.753 314.419 328.385 318.967 345.904C319.013 346.081 318.938 346.263 318.794 346.357Z" fill="#339989"/>
<path d="M247.107 345.798C247.022 345.851 246.917 345.874 246.811 345.851C246.597 345.806 246.461 345.598 246.506 345.386C250.214 328.019 254.533 312.455 260.512 294.924C260.58 294.716 260.806 294.607 261.013 294.677C261.219 294.747 261.33 294.97 261.259 295.175C255.293 312.678 250.981 328.214 247.279 345.549C247.256 345.655 247.192 345.743 247.107 345.798Z" fill="#339989"/>
<path d="M314.274 358.865L322.115 364.029L327.343 356.129L319.503 350.965L314.274 358.865Z" fill="#E94A47"/>
<path d="M269.231 373.094L267.964 383.37L278.383 384.774L279.649 374.498L269.231 373.094Z" fill="#1B236D"/>
<path d="M238.868 322.335L244.211 325.854L247.774 320.47L242.431 316.951L238.868 322.335Z" fill="#339989"/>
<path d="M277.023 366.954C276.966 366.992 276.899 367.015 276.828 367.018C276.612 367.027 276.432 366.857 276.425 366.637L274.675 310.971C274.668 310.751 274.838 310.566 275.052 310.555C275.267 310.546 275.447 310.716 275.454 310.936L277.205 366.603C277.208 366.75 277.134 366.881 277.023 366.954Z" fill="#339989"/>
<path d="M298.505 343.32C298.466 343.346 298.423 343.365 298.376 343.375C298.166 343.422 297.961 343.285 297.918 343.068L295.219 329.351C295.176 329.135 295.312 328.919 295.523 328.874C295.734 328.826 295.939 328.964 295.982 329.181L298.681 342.897C298.713 343.065 298.638 343.232 298.505 343.32Z" fill="#339989"/>
<path d="M296.638 217.674C292.723 220.195 288.184 221.626 283.51 221.811C276.531 222.088 269.866 219.633 264.745 214.898C259.624 210.164 256.658 203.716 256.395 196.742C256.047 187.545 260.652 178.729 268.411 173.734C272.326 171.214 276.865 169.783 281.538 169.598C295.946 169.025 308.11 180.271 308.654 194.665C309.001 203.865 304.397 212.68 296.638 217.674ZM272.667 180.349C267.242 183.841 264.023 190.003 264.266 196.431C264.45 201.303 266.523 205.809 270.102 209.118C273.681 212.426 278.337 214.142 283.215 213.949C286.482 213.819 289.652 212.821 292.384 211.062C297.81 207.569 301.029 201.406 300.786 194.979C300.406 184.92 291.906 177.062 281.838 177.462C278.569 177.592 275.399 178.591 272.667 180.349Z" fill="#E94A47"/>
<path d="M256.424 160.05C282.47 158.831 306.533 166.12 325.204 179.156C313.591 139.125 279.594 110.751 279.594 110.751C279.594 110.751 258.444 131.413 245.516 161.062C249.097 160.566 252.735 160.224 256.424 160.05Z" fill="#339989"/>
<path d="M313.05 147.011C298.619 123.267 280.168 108.112 280.168 108.112C280.168 108.112 262.664 124.913 249.676 149.913L313.05 147.011Z" fill="url(#paint6_linear_6_571)"/>
<path d="M523.894 379.455L520.898 366.722C519.352 366.452 517.8 366.44 516.26 366.774L519.499 380.54C519.68 381.312 519.225 382.087 518.482 382.27C517.739 382.453 516.989 381.977 516.808 381.204L513.629 367.695C512.146 368.425 510.826 369.466 509.698 370.752L512.379 382.15C512.561 382.922 512.106 383.697 511.363 383.88C510.62 384.064 509.87 383.587 509.689 382.815L507.582 373.862C505.358 378.118 504.645 383.765 506.009 389.566C506.041 389.702 506.075 389.836 506.109 389.97C505.033 390.45 503.977 390.982 502.954 391.586C500.081 393.281 496.289 396.29 494.537 401L495.829 401.524C497.435 397.207 500.966 394.417 503.644 392.836C504.568 392.291 505.524 391.806 506.501 391.365C508.051 396.351 510.95 400.437 514.42 402.924L512.418 394.418C512.237 393.645 512.692 392.871 513.435 392.687C514.178 392.504 514.928 392.981 515.109 393.753L517.688 404.715C519.264 405.329 520.898 405.623 522.534 405.545L519.537 392.808C519.355 392.035 519.811 391.261 520.554 391.077C521.297 390.894 522.047 391.371 522.228 392.143L525.266 405.055C526.747 404.581 528.108 403.767 529.366 402.715L526.624 391.057C526.442 390.285 526.897 389.511 527.64 389.327C528.384 389.144 529.133 389.621 529.315 390.393L531.672 400.413C532.944 398.932 534.098 397.233 535.157 395.458L533.677 389.168C533.495 388.395 533.95 387.621 534.694 387.437C535.437 387.254 536.186 387.731 536.368 388.503L537.156 391.853C539.837 386.711 541.88 381.738 543.818 380.229C540.92 379.217 537.014 375.755 532.618 372.563L533.638 376.899C533.82 377.672 533.365 378.446 532.621 378.63C531.878 378.813 531.129 378.336 530.947 377.564L529.228 370.258C527.508 369.181 525.738 368.237 523.944 367.568L526.585 378.79C526.767 379.562 526.312 380.337 525.568 380.52C524.825 380.704 524.075 380.226 523.894 379.455Z" fill="#DBECFF"/>
<path d="M75.5671 290.969C75.5671 291.514 76.0081 291.956 76.552 291.956C77.0959 291.956 77.5369 291.514 77.5369 290.969V285.812C78.5516 284.81 79.6228 283.889 80.7542 283.146V291.068C80.7542 291.613 81.1951 292.055 81.7392 292.055C82.2833 292.055 82.7241 291.613 82.7241 291.068V282.08C83.7498 281.645 84.8212 281.382 85.9414 281.351V291.068C85.9414 291.613 86.3825 292.055 86.9263 292.055C87.4702 292.055 87.9113 291.613 87.9113 291.068V281.532C89.0559 281.775 90.1389 282.252 91.1286 282.924V290.97C91.1286 291.515 91.5696 291.957 92.1135 291.957C92.6574 291.957 93.0984 291.515 93.0984 290.97V284.65C95.3297 287.122 96.7427 290.772 96.7427 294.868C96.7427 298.962 95.3297 302.671 93.0984 305.165V299.16C93.0984 298.615 92.6574 298.173 92.1135 298.173C91.5696 298.173 91.1286 298.615 91.1286 299.16V306.898C90.1387 307.568 89.0559 308.033 87.9113 308.25V299.259C87.9113 298.714 87.4702 298.272 86.9263 298.272C86.3825 298.272 85.9414 298.714 85.9414 299.259V308.373C84.8395 308.301 83.7652 307.983 82.7241 307.488V299.259C82.7241 298.714 82.283 298.272 81.7392 298.272C81.1953 298.272 80.7542 298.714 80.7542 299.259V306.332C79.6336 305.554 78.5586 304.61 77.5369 303.601V299.16C77.5369 298.615 77.0959 298.173 76.552 298.173C76.0081 298.173 75.5671 298.615 75.5671 299.16V301.525C72.8757 298.536 70.653 295.555 69.0666 294.867C70.9061 293.715 73.0453 290.762 75.5671 287.909V290.969Z" fill="#EEEEEE"/>
<path d="M93.9588 295.536L95.9625 295.647C98.7793 295.803 101.692 295.964 104.427 296.759C106.537 297.372 109.433 298.651 111.247 301.267L112.056 300.704C110.078 297.851 106.964 296.468 104.701 295.811C101.859 294.985 98.8888 294.821 96.0169 294.662L94.0132 294.551L93.9588 295.536Z" fill="#EEEEEE"/>
<path d="M105.45 283.975L106.551 285.656C108.098 288.02 109.698 290.464 110.683 293.14C111.444 295.206 112.136 298.301 111.112 301.316L112.044 301.634C113.161 298.345 112.423 295.014 111.607 292.799C110.583 290.017 108.952 287.525 107.374 285.115L106.274 283.434L105.45 283.975Z" fill="#D6D7D8"/>
<path d="M95.9743 274.624C95.65 275.062 95.7411 275.68 96.1779 276.004C96.6147 276.329 97.2316 276.238 97.5557 275.8L100.625 271.659C102.035 271.461 103.444 271.361 104.794 271.441L100.08 277.801C99.7559 278.239 99.847 278.857 100.284 279.182C100.721 279.507 101.338 279.415 101.662 278.978L107.009 271.762C108.092 272.025 109.109 272.454 110.027 273.098L104.245 280.9C103.921 281.338 104.012 281.956 104.449 282.281C104.885 282.606 105.502 282.514 105.827 282.077L111.5 274.42C112.275 275.299 112.861 276.329 113.256 277.459L108.468 283.919C108.144 284.357 108.235 284.975 108.672 285.299C109.109 285.625 109.726 285.533 110.05 285.095L113.81 280.022C114.13 283.339 113.093 287.114 110.656 290.402C108.22 293.689 104.879 295.823 101.604 296.492L105.176 291.671C105.501 291.234 105.41 290.616 104.973 290.291C104.536 289.966 103.919 290.057 103.595 290.495L98.9909 296.708C97.7979 296.654 96.6515 296.381 95.6034 295.871L100.953 288.652C101.278 288.215 101.186 287.597 100.75 287.272C100.313 286.947 99.6958 287.038 99.3717 287.476L93.9487 294.793C93.1069 294.077 92.434 293.18 91.8923 292.161L96.7885 285.554C97.1129 285.116 97.0217 284.498 96.5849 284.173C96.1481 283.848 95.5312 283.94 95.2071 284.377L90.9988 290.056C90.562 288.762 90.2605 287.362 90.0405 285.941L92.6826 282.377C93.007 281.939 92.9158 281.321 92.479 280.996C92.0422 280.671 91.4253 280.762 91.1012 281.2L89.6942 283.099C89.3119 279.092 89.3009 275.37 88.4362 273.871C90.5987 274.045 94.0734 272.951 97.7959 272.166L95.9743 274.624Z" fill="#D6D7D8"/>
<path d="M371.876 369.973C373.677 369.973 375.137 368.51 375.137 366.705C375.137 364.899 373.677 363.436 371.876 363.436C370.076 363.436 368.616 364.899 368.616 366.705C368.616 368.51 370.076 369.973 371.876 369.973Z" fill="#D9E021"/>
<path d="M327.413 301.342L328.407 298.136L331.602 299.132L330.609 302.337L327.413 301.342Z" fill="#7DE2D1"/>
<path d="M345.353 311.417L348.057 302.69L356.759 305.4L354.055 314.128L345.353 311.417Z" fill="#FCC817"/>
<path d="M332.496 344.648L335.201 335.92L343.903 338.631L341.199 347.359L332.496 344.648Z" fill="#7DE2D1"/>
<path d="M340.409 319.886C340.272 319.886 340.142 319.809 340.08 319.675C335.815 310.458 338.445 298.574 346.199 292.032C346.352 291.902 346.58 291.923 346.71 292.077C346.838 292.23 346.819 292.46 346.665 292.588C339.152 298.926 336.604 310.44 340.737 319.37C340.822 319.552 340.742 319.768 340.561 319.854C340.513 319.875 340.461 319.886 340.409 319.886Z" fill="#23286B"/>
<path d="M372.379 355.51C372.284 355.51 372.189 355.473 372.117 355.399C371.978 355.255 371.983 355.024 372.126 354.885C377.377 349.807 386.586 349.424 392.24 354.044C392.395 354.17 392.418 354.399 392.291 354.554C392.166 354.711 391.938 354.733 391.782 354.606C386.4 350.207 377.629 350.574 372.63 355.408C372.56 355.475 372.469 355.51 372.379 355.51Z" fill="#23286B"/>
<path d="M207.063 301.85L205.866 299.263L203.272 300.457L204.469 303.044L207.063 301.85Z" fill="#7DE2D1"/>
<path d="M210.328 321.547L207.069 314.503L200.008 317.755L203.267 324.798L210.328 321.547Z" fill="#FCC817"/>
<path d="M200.13 345.594L196.871 338.55L189.81 341.802L193.069 348.845L200.13 345.594Z" fill="#7DE2D1"/>
<path d="M203.354 333.719C203.354 333.618 203.303 333.518 203.211 333.459C196.149 328.962 192.713 319.557 195.216 311.581C195.267 311.417 195.176 311.245 195.013 311.195C194.85 311.144 194.677 311.234 194.626 311.397C192.042 319.629 195.59 329.338 202.878 333.98C203.022 334.071 203.213 334.029 203.305 333.887C203.338 333.834 203.354 333.777 203.354 333.719Z" fill="#23286B"/>
<path d="M231.684 301.323C231.684 301.316 231.684 301.31 231.683 301.303C231.672 301.134 231.526 301.004 231.356 301.015C225.144 301.409 219.6 306.978 219.25 313.177C219.227 313.35 219.371 313.492 219.541 313.502C219.711 313.512 219.858 313.381 219.867 313.211C220.201 307.308 225.48 302.005 231.394 301.63C231.558 301.619 231.684 301.484 231.684 301.323Z" fill="#23286B"/>
<path d="M319.668 304.371C322.013 304.232 324.318 304.232 326.583 304.371C326.687 306.823 326.702 309.15 326.583 311.286C324.278 311.385 321.973 311.385 319.668 311.286C319.537 309.053 319.546 306.743 319.668 304.371Z" fill="#FCC817"/>
<path d="M229.973 372.587C232.035 372.587 233.707 370.915 233.707 368.853C233.707 366.791 232.035 365.12 229.973 365.12C227.912 365.12 226.24 366.791 226.24 368.853C226.24 370.915 227.912 372.587 229.973 372.587Z" fill="#23286B"/>
<path d="M369.761 336.552C368.181 337.657 366.568 338.647 364.923 339.524C363.797 337.852 362.786 336.231 361.951 334.685C363.521 333.626 365.134 332.635 366.79 331.713C367.841 333.219 368.827 334.84 369.761 336.552Z" fill="#7DE2D1"/>
<path d="M352.8 359.256L349.964 363.626L346.08 360.903L348.916 356.533L352.8 359.256Z" fill="#D9E021"/>
<path d="M286.533 316.213C288.905 316.213 290.827 314.291 290.827 311.92C290.827 309.549 288.905 307.627 286.533 307.627C284.162 307.627 282.24 309.549 282.24 311.92C282.24 314.291 284.162 316.213 286.533 316.213Z" fill="#D9E021"/>
<path d="M249.013 288.64L246.65 292.32L243.413 290.027L245.777 286.347L249.013 288.64Z" fill="#D9E021"/>
<path d="M242.667 350.187L240.427 347.947L242.667 345.707L244.907 347.947L242.667 350.187Z" fill="#7DE2D1"/>
<path d="M220.739 346.999C219.792 347.666 218.825 348.264 217.839 348.794C217.161 347.794 216.552 346.823 216.049 345.898C216.989 345.258 217.956 344.66 218.948 344.103C219.581 345.004 220.176 345.974 220.739 346.999Z" fill="#23286B"/>
<path d="M284.052 288.9C282.694 288.98 281.36 288.98 280.048 288.9C279.988 287.48 279.98 286.133 280.048 284.896C281.383 284.839 282.717 284.839 284.052 284.896C284.128 286.189 284.122 287.526 284.052 288.9Z" fill="#23286B"/>
<path d="M381.798 319.656C380.223 320.824 378.612 321.876 376.965 322.814C375.773 321.147 374.7 319.528 373.807 317.981C375.373 316.859 376.984 315.807 378.64 314.823C379.751 316.324 380.8 317.943 381.798 319.656Z" fill="#23286B"/>
<path d="M172.48 324.427C174.336 324.427 175.84 322.922 175.84 321.067C175.84 319.211 174.336 317.707 172.48 317.707C170.624 317.707 169.12 319.211 169.12 321.067C169.12 322.922 170.624 324.427 172.48 324.427Z" fill="#D9E021"/>
<path d="M194.693 383.04L191.52 379.867L194.693 376.693L197.867 379.867L194.693 383.04Z" fill="#7DE2D1"/>
<defs>
<linearGradient id="paint0_linear_6_571" x1="394.419" y1="323.085" x2="476.224" y2="323.085" gradientUnits="userSpaceOnUse">
<stop stop-color="#7DE2D1"/>
<stop offset="1" stop-color="#339989"/>
</linearGradient>
<linearGradient id="paint1_linear_6_571" x1="421.124" y1="342.167" x2="506.456" y2="342.167" gradientUnits="userSpaceOnUse">
<stop stop-color="#DEEAFE"/>
<stop offset="1" stop-color="#E9F1FE"/>
</linearGradient>
<linearGradient id="paint2_linear_6_571" x1="125" y1="337.281" x2="438.673" y2="337.281" gradientUnits="userSpaceOnUse">
<stop stop-color="#EEEEEE"/>
<stop offset="1" stop-color="#D6D7D8"/>
</linearGradient>
<linearGradient id="paint3_linear_6_571" x1="156.978" y1="394.539" x2="77.5487" y2="416.374" gradientUnits="userSpaceOnUse">
<stop stop-color="#7DE2D1"/>
<stop offset="1" stop-color="#339989"/>
</linearGradient>
<linearGradient id="paint4_linear_6_571" x1="136.197" y1="420.216" x2="53.3338" y2="442.995" gradientUnits="userSpaceOnUse">
<stop stop-color="#DEEAFE"/>
<stop offset="1" stop-color="#E9F1FE"/>
</linearGradient>
<linearGradient id="paint5_linear_6_571" x1="233.578" y1="192.742" x2="326.875" y2="189.976" gradientUnits="userSpaceOnUse">
<stop stop-color="#7DE2D1"/>
<stop offset="1" stop-color="#339989"/>
</linearGradient>
<linearGradient id="paint6_linear_6_571" x1="249.079" y1="129.738" x2="312.483" y2="127.862" gradientUnits="userSpaceOnUse">
<stop stop-color="#FF4945"/>
<stop offset="1" stop-color="#F92424"/>
</linearGradient>
</defs>
</svg>