<svg width="420" height="420" viewBox="0 0 420 420" fill="none" xmlns="http://www.w3.org/2000/svg">
<path d="M276.963 194.32H255.036L247.24 186.511V135.769L255.036 127.96L276.963 127.96L284.76 135.769V186.511L276.963 194.32Z" fill="url(#paint0_linear_4_4)"/>
<path d="M284.76 142.938H247.24V146.778H284.76V142.938Z" fill="#2B2C28"/>
<path d="M280.978 167.483C281.535 167.483 281.986 167.031 281.986 166.473C281.986 165.915 281.535 165.463 280.978 165.463C280.421 165.463 279.969 165.915 279.969 166.473C279.969 167.031 280.421 167.483 280.978 167.483Z" fill="#2B2C28"/>
<path d="M280.978 172.472C281.535 172.472 281.986 172.02 281.986 171.462C281.986 170.904 281.535 170.452 280.978 170.452C280.421 170.452 279.969 170.904 279.969 171.462C279.969 172.02 280.421 172.472 280.978 172.472Z" fill="#2B2C28"/>
<path d="M280.978 177.461C281.535 177.461 281.986 177.009 281.986 176.451C281.986 175.893 281.535 175.441 280.978 175.441C280.421 175.441 279.969 175.893 279.969 176.451C279.969 177.009 280.421 177.461 280.978 177.461Z" fill="#2B2C28"/>
<path d="M280.978 182.45C281.535 182.45 281.986 181.998 281.986 181.44C281.986 180.882 281.535 180.43 280.978 180.43C280.421 180.43 279.969 180.882 279.969 181.44C279.969 181.998 280.421 182.45 280.978 182.45Z" fill="#2B2C28"/>
<path d="M275.996 167.483C276.553 167.483 277.005 167.031 277.005 166.473C277.005 165.915 276.553 165.463 275.996 165.463C275.439 165.463 274.988 165.915 274.988 166.473C274.988 167.031 275.439 167.483 275.996 167.483Z" fill="#2B2C28"/>
<path d="M275.996 172.472C276.553 172.472 277.005 172.02 277.005 171.462C277.005 170.904 276.553 170.452 275.996 170.452C275.439 170.452 274.988 170.904 274.988 171.462C274.988 172.02 275.439 172.472 275.996 172.472Z" fill="#2B2C28"/>
<path d="M275.996 177.461C276.553 177.461 277.005 177.009 277.005 176.451C277.005 175.893 276.553 175.441 275.996 175.441C275.439 175.441 274.988 175.893 274.988 176.451C274.988 177.009 275.439 177.461 275.996 177.461Z" fill="#2B2C28"/>
<path d="M275.996 182.45C276.553 182.45 277.005 181.998 277.005 181.44C277.005 180.882 276.553 180.43 275.996 180.43C275.439 180.43 274.988 180.882 274.988 181.44C274.988 181.998 275.439 182.45 275.996 182.45Z" fill="#2B2C28"/>
<path d="M271.018 167.483C271.575 167.483 272.027 167.031 272.027 166.473C272.027 165.915 271.575 165.463 271.018 165.463C270.461 165.463 270.01 165.915 270.01 166.473C270.01 167.031 270.461 167.483 271.018 167.483Z" fill="#2B2C28"/>
<path d="M271.018 172.472C271.575 172.472 272.027 172.02 272.027 171.462C272.027 170.904 271.575 170.452 271.018 170.452C270.461 170.452 270.01 170.904 270.01 171.462C270.01 172.02 270.461 172.472 271.018 172.472Z" fill="#2B2C28"/>
<path d="M271.018 177.461C271.575 177.461 272.027 177.009 272.027 176.451C272.027 175.893 271.575 175.441 271.018 175.441C270.461 175.441 270.01 175.893 270.01 176.451C270.01 177.009 270.461 177.461 271.018 177.461Z" fill="#2B2C28"/>
<path d="M271.018 182.45C271.575 182.45 272.027 181.998 272.027 181.44C272.027 180.882 271.575 180.43 271.018 180.43C270.461 180.43 270.01 180.882 270.01 181.44C270.01 181.998 270.461 182.45 271.018 182.45Z" fill="#2B2C28"/>
<path d="M266.036 167.483C266.593 167.483 267.045 167.031 267.045 166.473C267.045 165.915 266.593 165.463 266.036 165.463C265.479 165.463 265.028 165.915 265.028 166.473C265.028 167.031 265.479 167.483 266.036 167.483Z" fill="#2B2C28"/>
<path d="M266.036 172.472C266.593 172.472 267.045 172.02 267.045 171.462C267.045 170.904 266.593 170.452 266.036 170.452C265.479 170.452 265.028 170.904 265.028 171.462C265.028 172.02 265.479 172.472 266.036 172.472Z" fill="#2B2C28"/>
<path d="M266.036 177.461C266.593 177.461 267.045 177.009 267.045 176.451C267.045 175.893 266.593 175.441 266.036 175.441C265.479 175.441 265.028 175.893 265.028 176.451C265.028 177.009 265.479 177.461 266.036 177.461Z" fill="#2B2C28"/>
<path d="M266.036 182.45C266.593 182.45 267.045 181.998 267.045 181.44C267.045 180.882 266.593 180.43 266.036 180.43C265.479 180.43 265.028 180.882 265.028 181.44C265.028 181.998 265.479 182.45 266.036 182.45Z" fill="#2B2C28"/>
<path d="M261.058 167.483C261.615 167.483 262.066 167.031 262.066 166.473C262.066 165.915 261.615 165.463 261.058 165.463C260.501 165.463 260.049 165.915 260.049 166.473C260.049 167.031 260.501 167.483 261.058 167.483Z" fill="#2B2C28"/>
<path d="M261.058 172.472C261.615 172.472 262.066 172.02 262.066 171.462C262.066 170.904 261.615 170.452 261.058 170.452C260.501 170.452 260.049 170.904 260.049 171.462C260.049 172.02 260.501 172.472 261.058 172.472Z" fill="#2B2C28"/>
<path d="M261.058 177.461C261.615 177.461 262.066 177.009 262.066 176.451C262.066 175.893 261.615 175.441 261.058 175.441C260.501 175.441 260.049 175.893 260.049 176.451C260.049 177.009 260.501 177.461 261.058 177.461Z" fill="#2B2C28"/>
<path d="M261.058 182.45C261.615 182.45 262.066 181.998 262.066 181.44C262.066 180.882 261.615 180.43 261.058 180.43C260.501 180.43 260.049 180.882 260.049 181.44C260.049 181.998 260.501 182.45 261.058 182.45Z" fill="#2B2C28"/>
<path d="M256.079 167.483C256.636 167.483 257.088 167.031 257.088 166.473C257.088 165.915 256.636 165.463 256.079 165.463C255.522 165.463 255.07 165.915 255.07 166.473C255.07 167.031 255.522 167.483 256.079 167.483Z" fill="#2B2C28"/>
<path d="M256.079 172.472C256.636 172.472 257.088 172.02 257.088 171.462C257.088 170.904 256.636 170.452 256.079 170.452C255.522 170.452 255.07 170.904 255.07 171.462C255.07 172.02 255.522 172.472 256.079 172.472Z" fill="#2B2C28"/>
<path d="M256.079 177.461C256.636 177.461 257.088 177.009 257.088 176.451C257.088 175.893 256.636 175.441 256.079 175.441C255.522 175.441 255.07 175.893 255.07 176.451C255.07 177.009 255.522 177.461 256.079 177.461Z" fill="#2B2C28"/>
<path d="M256.079 182.45C256.636 182.45 257.088 181.998 257.088 181.44C257.088 180.882 256.636 180.43 256.079 180.43C255.522 180.43 255.07 180.882 255.07 181.44C255.07 181.998 255.522 182.45 256.079 182.45Z" fill="#2B2C28"/>
<path d="M251.098 167.483C251.655 167.483 252.106 167.031 252.106 166.473C252.106 165.915 251.655 165.463 251.098 165.463C250.541 165.463 250.089 165.915 250.089 166.473C250.089 167.031 250.541 167.483 251.098 167.483Z" fill="#2B2C28"/>
<path d="M251.098 172.472C251.655 172.472 252.106 172.02 252.106 171.462C252.106 170.904 251.655 170.452 251.098 170.452C250.541 170.452 250.089 170.904 250.089 171.462C250.089 172.02 250.541 172.472 251.098 172.472Z" fill="#2B2C28"/>
<path d="M251.098 177.461C251.655 177.461 252.106 177.009 252.106 176.451C252.106 175.893 251.655 175.441 251.098 175.441C250.541 175.441 250.089 175.893 250.089 176.451C250.089 177.009 250.541 177.461 251.098 177.461Z" fill="#2B2C28"/>
<path d="M251.098 182.45C251.655 182.45 252.106 181.998 252.106 181.44C252.106 180.882 251.655 180.43 251.098 180.43C250.541 180.43 250.089 180.882 250.089 181.44C250.089 181.998 250.541 182.45 251.098 182.45Z" fill="#2B2C28"/>
<path d="M354.76 202.012H345.823L345.823 386.68H354.76L354.76 202.012Z" fill="url(#paint1_linear_4_4)"/>
<path d="M52.0637 202.012H43.1263L43.1263 386.68H52.0637L52.0637 202.012Z" fill="url(#paint2_linear_4_4)"/>
<path d="M158.326 202.012H149.388L149.388 386.68H158.326L158.326 202.012Z" fill="url(#paint3_linear_4_4)"/>
<path d="M354.756 193.2L43.1199 193.2V203.313L354.756 203.313V193.2Z" fill="url(#paint4_linear_4_4)"/>
<path d="M158.321 193.2L43.1912 193.2V203.313L158.321 203.313V193.2Z" fill="url(#paint5_linear_4_4)"/>
<path d="M382.736 36.96L298.822 36.96C295.719 36.96 292.744 38.1937 290.55 40.3897C288.356 42.5858 287.123 45.5642 287.123 48.6699V66.4951C287.123 66.4951 286.727 120.855 287.123 120.38C287.52 119.906 304.379 99.6148 308.097 96.0497L373.319 95.9131H382.736C385.839 95.9131 388.815 94.6794 391.009 92.4833C393.203 90.2873 394.435 87.3088 394.435 84.2032V84.2032V48.6049C394.418 45.5105 393.178 42.5487 390.986 40.3667C388.794 38.1847 385.828 36.9599 382.736 36.96V36.96Z" fill="#339989"/>
<path d="M358.968 69.2144C357.184 69.2144 355.738 67.7669 355.738 65.9812C355.738 64.1955 357.184 62.7479 358.968 62.7479C360.752 62.7479 362.198 64.1955 362.198 65.9812C362.198 67.7669 360.752 69.2144 358.968 69.2144Z" fill="#339989"/>
<path d="M340.198 69.2144C338.414 69.2144 336.967 67.7669 336.967 65.9812C336.967 64.1955 338.414 62.7479 340.198 62.7479C341.982 62.7479 343.428 64.1955 343.428 65.9812C343.428 67.7669 341.982 69.2144 340.198 69.2144Z" fill="#339989"/>
<path d="M321.434 69.2144C319.65 69.2144 318.204 67.7669 318.204 65.9812C318.204 64.1955 319.65 62.7479 321.434 62.7479C323.218 62.7479 324.664 64.1955 324.664 65.9812C324.664 67.7669 323.218 69.2144 321.434 69.2144Z" fill="#339989"/>
<path d="M133.751 387.8C139.497 387.8 144.155 383.146 144.155 377.404C144.155 371.663 139.497 367.008 133.751 367.008C128.005 367.008 123.347 371.663 123.347 377.404C123.347 383.146 128.005 387.8 133.751 387.8Z" fill="url(#paint6_linear_4_4)"/>
<path d="M174.469 227.663L37.5104 227.663L37.5104 252.953L174.469 252.953V227.663Z" fill="url(#paint7_linear_4_4)"/>
<path d="M81.0293 252.953L130.75 252.953C130.75 257.352 127.149 260.85 122.847 260.85H89.0327C84.5308 260.85 81.0293 257.352 81.0293 252.953Z" fill="url(#paint8_linear_4_4)"/>
<path d="M111.942 260.75H99.7371V283.041H111.942V260.75Z" fill="url(#paint9_linear_4_4)"/>
<path d="M104.538 280.642H107.239C111.641 280.642 115.243 284.241 115.243 288.639L115.243 353.813H96.5347L96.5347 288.639C96.4347 284.241 100.036 280.642 104.538 280.642Z" fill="url(#paint10_linear_4_4)"/>
<path d="M105.94 353.813H151.959C157.662 353.813 162.163 358.412 162.163 364.009V367.308H158.862V366.608V365.209C158.862 360.711 155.26 357.112 150.759 357.112H105.94V353.813Z" fill="url(#paint11_linear_4_4)"/>
<path d="M105.94 353.813H125.348C131.05 353.813 135.552 358.412 135.552 364.009V367.308H132.251V366.608V365.209C132.251 360.711 128.649 357.112 124.147 357.112H105.94V353.813Z" fill="#23286B"/>
<path d="M106.139 353.813H60.1196C54.4172 353.813 49.9153 358.412 49.9153 364.009V367.308H53.2167V366.608V365.209C53.2167 360.711 56.8182 357.112 61.3201 357.112H106.139V353.813Z" fill="url(#paint12_linear_4_4)"/>
<path d="M106.139 353.813H86.7308C81.0284 353.813 76.5265 358.412 76.5265 364.009V367.308H79.8279V366.608V365.209C79.8279 360.711 83.4294 357.112 87.9313 357.112H106.139V353.813Z" fill="#23286B"/>
<path d="M78.1271 387.8C83.8733 387.8 88.5315 383.146 88.5315 377.404C88.5315 371.663 83.8733 367.008 78.1271 367.008C72.3809 367.008 67.7227 371.663 67.7227 377.404C67.7227 383.146 72.3809 387.8 78.1271 387.8Z" fill="url(#paint13_linear_4_4)"/>
<path d="M160.563 387.8C166.309 387.8 170.967 383.146 170.967 377.404C170.967 371.663 166.309 367.008 160.563 367.008C154.817 367.008 150.158 371.663 150.158 377.404C150.158 383.146 154.817 387.8 160.563 387.8Z" fill="url(#paint14_linear_4_4)"/>
<path d="M145.356 354.213L133.351 387.7H218.187C218.187 387.7 213.785 379.303 199.279 373.106C184.773 366.908 171.267 354.213 171.267 354.213H145.356Z" fill="url(#paint15_linear_4_4)"/>
<path d="M85.23 200.074C85.23 200.074 96.3347 225.664 129.649 229.163C162.963 232.662 149.457 266.548 146.556 271.846C143.655 277.144 140.053 281.742 137.952 289.939C135.851 298.136 138.853 308.731 135.551 314.729C132.25 320.727 118.344 340.919 122.646 354.213H171.367C171.367 354.213 199.479 243.657 197.578 232.761C195.677 221.866 198.778 213.069 169.466 199.475C140.153 185.88 120.445 177.383 120.445 177.383L85.23 200.074Z" fill="url(#paint16_linear_4_4)"/>
<path d="M51.516 387.8C57.2622 387.8 61.9205 383.146 61.9205 377.404C61.9205 371.663 57.2622 367.008 51.516 367.008C45.7698 367.008 41.1116 371.663 41.1116 377.404C41.1116 383.146 45.7698 387.8 51.516 387.8Z" fill="url(#paint17_linear_4_4)"/>
<path d="M105.239 100.914L89.9324 92.9169L95.1346 80.9216C99.3364 83.3207 103.638 86.2195 108.44 85.8197C107.64 88.0188 104.339 97.8149 105.239 100.914Z" fill="url(#paint18_linear_4_4)"/>
<path d="M171.367 354.313L159.462 387.9H244.298C244.298 387.9 239.896 379.503 225.39 373.306C210.884 367.108 197.378 354.413 197.378 354.413" fill="#2B2C28"/>
<path d="M94.9342 194.177C94.9342 194.177 91.8329 222.865 130.249 229.063C168.666 235.26 170.366 239.959 170.666 249.755C170.967 259.551 168.065 265.349 164.464 275.445C160.862 285.541 160.762 299.435 162.663 307.532C164.564 315.629 156.16 325.725 152.259 335.221C149.858 341.318 148.657 347.716 149.357 354.213L202.28 354.413C202.28 354.413 216.386 259.551 217.386 245.556C218.387 231.562 222.889 217.268 204.681 207.871C186.473 198.475 147.457 181.282 147.457 181.282L94.9342 194.177Z" fill="url(#paint19_linear_4_4)"/>
<path opacity="0.86" d="M124.347 199.475C124.247 199.575 124.247 199.674 124.347 199.774C124.448 199.874 124.548 199.874 124.648 199.774C124.748 199.674 124.748 199.575 124.648 199.475C124.548 199.375 124.448 199.375 124.347 199.475ZM121.246 202.773C121.146 202.873 121.146 202.973 121.246 203.073C121.346 203.173 121.446 203.173 121.546 203.073C121.646 202.973 121.646 202.873 121.546 202.773C121.446 202.673 121.346 202.773 121.246 202.773ZM138.654 210.27C138.554 210.27 138.453 210.37 138.453 210.47C138.453 210.57 138.554 210.67 138.654 210.67C138.754 210.67 138.854 210.57 138.854 210.47C138.854 210.27 138.754 210.27 138.654 210.27ZM134.052 210.37C133.952 210.37 133.852 210.47 133.852 210.57C133.852 210.67 133.952 210.77 134.052 210.77C134.152 210.77 134.252 210.67 134.252 210.57C134.252 210.47 134.152 210.37 134.052 210.37ZM129.55 210.57C129.45 210.57 129.35 210.67 129.35 210.77C129.35 210.87 129.45 210.97 129.55 210.97C129.65 210.97 129.75 210.87 129.75 210.77C129.75 210.57 129.65 210.57 129.55 210.57ZM124.948 210.67C124.848 210.67 124.748 210.77 124.748 210.87C124.748 210.97 124.848 211.07 124.948 211.07C125.048 211.07 125.148 210.97 125.148 210.87C125.148 210.77 125.048 210.67 124.948 210.67ZM131.751 228.163C131.651 228.263 131.651 228.363 131.751 228.463C131.851 228.563 131.951 228.563 131.951 228.463C132.051 228.363 132.051 228.263 131.951 228.163C131.851 228.063 131.851 228.163 131.751 228.163ZM134.052 201.574C133.952 201.574 133.952 201.774 133.952 201.774L134.152 201.874C134.252 201.874 134.252 201.674 134.252 201.674C134.252 201.574 134.152 201.574 134.052 201.574ZM129.85 203.473C129.75 203.473 129.75 203.673 129.75 203.673C129.75 203.673 129.75 203.773 129.85 203.773C129.95 203.773 129.95 203.773 130.05 203.773C130.15 203.773 130.15 203.673 130.15 203.573C130.05 203.473 129.95 203.373 129.85 203.473ZM125.748 205.372C125.648 205.372 125.648 205.472 125.648 205.572C125.648 205.672 125.748 205.672 125.848 205.672C125.948 205.672 125.948 205.572 125.948 205.472C125.948 205.372 125.848 205.272 125.748 205.372ZM121.546 207.171C121.446 207.171 121.446 207.371 121.446 207.371C121.446 207.471 121.546 207.471 121.646 207.471C121.746 207.471 121.746 207.371 121.746 207.271C121.746 207.171 121.646 207.171 121.546 207.171ZM134.652 219.067C134.652 219.167 134.652 219.267 134.752 219.267C134.852 219.267 134.952 219.267 134.952 219.167C134.952 219.067 134.952 218.967 134.852 218.967C134.752 218.967 134.652 218.967 134.652 219.067ZM130.35 217.467C130.35 217.567 130.35 217.667 130.45 217.667C130.55 217.667 130.65 217.667 130.65 217.567C130.65 217.467 130.65 217.367 130.55 217.367C130.55 217.367 130.45 217.367 130.35 217.467ZM125.348 199.774C125.148 199.874 125.148 200.074 125.148 200.274C125.248 200.374 125.348 200.474 125.448 200.474C125.548 200.474 125.548 200.474 125.648 200.474L125.748 200.374C125.848 200.274 125.848 199.974 125.748 199.874C125.648 199.674 125.548 199.674 125.348 199.774ZM159.262 219.766C159.162 219.966 159.262 220.166 159.462 220.166C159.663 220.266 159.863 220.166 159.863 219.966C159.963 219.766 159.863 219.567 159.663 219.567C159.562 219.467 159.362 219.567 159.262 219.766ZM150.959 217.267C150.859 217.467 151.059 217.667 151.159 217.667C151.359 217.767 151.559 217.667 151.559 217.467C151.659 217.267 151.559 217.068 151.359 217.068C151.259 216.968 151.059 217.068 150.959 217.267ZM142.755 214.768C142.755 214.968 142.855 215.168 142.955 215.268C143.155 215.368 143.356 215.268 143.356 215.068C143.456 214.868 143.356 214.669 143.156 214.669C142.955 214.469 142.755 214.569 142.755 214.768ZM134.452 212.269C134.352 212.469 134.552 212.669 134.652 212.669C134.852 212.769 135.052 212.669 135.052 212.469C135.152 212.269 135.052 212.07 134.852 212.07C134.752 211.97 134.552 212.07 134.452 212.269ZM126.248 209.77C126.148 209.97 126.348 210.17 126.548 210.17C126.749 210.27 126.949 210.07 126.949 209.97C127.049 209.77 126.949 209.571 126.749 209.571C126.448 209.471 126.248 209.571 126.248 209.77ZM157.261 200.874C157.061 200.874 156.861 201.074 156.961 201.274C157.061 201.474 157.161 201.674 157.362 201.574C157.562 201.474 157.762 201.374 157.662 201.174C157.562 200.974 157.462 200.874 157.261 200.874ZM148.658 201.674C148.458 201.674 148.258 201.874 148.358 202.074C148.358 202.273 148.558 202.473 148.758 202.373C148.958 202.373 149.158 202.173 149.058 201.974C149.058 201.874 148.858 201.674 148.658 201.674ZM140.054 202.573C139.854 202.573 139.754 202.773 139.754 202.973C139.754 203.173 139.954 203.273 140.154 203.273C140.354 203.273 140.454 203.073 140.454 202.873C140.454 202.673 140.254 202.573 140.054 202.573ZM131.451 203.473C131.25 203.473 131.15 203.673 131.15 203.873C131.15 204.073 131.35 204.173 131.551 204.173C131.751 204.173 131.851 203.973 131.851 203.773C131.851 203.573 131.651 203.473 131.451 203.473ZM122.847 204.273C122.647 204.273 122.547 204.473 122.547 204.672C122.547 204.872 122.747 204.972 122.947 204.972C123.147 204.972 123.247 204.772 123.247 204.573C123.247 204.473 123.047 204.273 122.847 204.273C122.847 204.273 122.947 204.273 122.847 204.273ZM141.055 227.164C140.955 227.264 140.955 227.563 141.055 227.663C141.255 227.763 141.455 227.763 141.555 227.663C141.655 227.463 141.655 227.264 141.455 227.164C141.455 227.064 141.155 227.064 141.055 227.164ZM134.352 221.766C134.252 221.966 134.252 222.166 134.352 222.265C134.452 222.365 134.752 222.365 134.852 222.265C134.952 222.166 134.952 221.866 134.852 221.766C134.752 221.566 134.552 221.566 134.352 221.766ZM127.649 216.268C127.549 216.468 127.549 216.668 127.749 216.768C127.849 216.868 128.149 216.868 128.249 216.768C128.349 216.568 128.349 216.368 128.249 216.268C128.049 216.168 127.849 216.168 127.649 216.268ZM156.161 192.577C155.961 192.577 155.861 192.777 155.861 192.977C155.861 193.177 156.061 193.277 156.261 193.277C156.461 193.277 156.561 193.077 156.461 192.877C156.561 192.577 156.361 192.477 156.161 192.577ZM148.658 194.077C148.458 194.077 148.358 194.277 148.458 194.477C148.458 194.676 148.658 194.776 148.858 194.676C149.058 194.676 149.158 194.477 149.058 194.277C148.958 194.077 148.858 193.977 148.658 194.077ZM141.055 195.576C140.955 195.576 140.955 195.576 140.855 195.676C140.754 195.776 140.754 195.876 140.754 195.976C140.754 196.176 140.955 196.276 141.155 196.276C141.355 196.276 141.455 196.076 141.355 195.876C141.355 195.776 141.255 195.776 141.255 195.676C141.255 195.576 141.155 195.476 141.055 195.576ZM133.551 197.075C133.351 197.075 133.251 197.275 133.351 197.475C133.351 197.675 133.551 197.775 133.751 197.775C133.952 197.775 134.052 197.575 134.052 197.375C133.852 197.075 133.651 196.976 133.551 197.075ZM149.658 224.465C149.558 224.565 149.558 224.765 149.758 224.864C149.858 224.964 150.058 224.964 150.158 224.764C150.259 224.565 150.259 224.465 150.058 224.265C149.958 224.265 149.758 224.265 149.658 224.465ZM143.256 220.166C143.155 220.266 143.156 220.466 143.356 220.566C143.456 220.666 143.656 220.666 143.756 220.466C143.856 220.366 143.856 220.166 143.656 220.066C143.556 219.966 143.356 220.066 143.256 220.166ZM136.853 215.868C136.753 215.968 136.753 216.168 136.953 216.268C137.053 216.368 137.253 216.368 137.353 216.168C137.453 216.068 137.453 215.868 137.253 215.768C137.153 215.668 136.953 215.768 136.853 215.868ZM130.45 211.57C130.35 211.67 130.45 211.87 130.55 211.97C130.65 212.07 130.85 212.07 130.95 211.87C131.05 211.77 131.05 211.57 130.85 211.47C130.75 211.47 130.55 211.47 130.45 211.57ZM124.047 207.371C123.947 207.571 123.947 207.671 124.147 207.871C124.247 207.971 124.448 207.971 124.548 207.771C124.648 207.671 124.648 207.471 124.448 207.371C124.347 207.171 124.147 207.171 124.047 207.371ZM152.259 207.971C152.259 208.171 152.359 208.271 152.559 208.371C152.76 208.371 152.86 208.271 152.96 208.171C152.96 207.971 152.86 207.871 152.76 207.771C152.459 207.671 152.259 207.771 152.259 207.971ZM144.756 206.472C144.756 206.672 144.856 206.772 145.056 206.872C145.256 206.872 145.356 206.772 145.456 206.672C145.456 206.472 145.356 206.372 145.256 206.272C144.956 206.172 144.756 206.272 144.756 206.472ZM137.153 204.872C137.153 205.072 137.253 205.172 137.353 205.272C137.553 205.272 137.653 205.172 137.753 204.972C137.753 204.772 137.653 204.672 137.553 204.573C137.353 204.672 137.253 204.772 137.153 204.872ZM129.65 203.373C129.65 203.573 129.75 203.673 129.85 203.773C129.95 203.773 129.95 203.773 130.05 203.773C130.15 203.773 130.25 203.673 130.25 203.573C130.25 203.373 130.15 203.273 129.95 203.173C129.85 203.173 129.65 203.273 129.65 203.373ZM122.047 201.874C122.047 201.974 122.047 201.974 122.047 202.074C122.147 202.074 122.147 202.173 122.147 202.273H122.247C122.447 202.273 122.547 202.173 122.647 202.074C122.647 201.874 122.547 201.774 122.347 201.674C122.247 201.574 122.047 201.774 122.047 201.874ZM131.951 225.964C131.851 226.064 131.751 226.264 131.851 226.464C131.951 226.564 132.151 226.664 132.251 226.564C132.351 226.464 132.451 226.264 132.351 226.164C132.251 225.864 132.051 225.864 131.951 225.964ZM138.153 205.572C138.153 205.672 138.153 205.772 138.253 205.772C138.353 205.772 138.453 205.772 138.453 205.672C138.453 205.572 138.454 205.472 138.353 205.472C138.253 205.472 138.153 205.472 138.153 205.572ZM133.952 203.873C133.952 203.973 133.952 204.073 134.052 204.073C134.152 204.073 134.252 204.073 134.252 203.973C134.252 203.873 134.252 203.773 134.152 203.673C134.052 203.673 133.952 203.773 133.952 203.873ZM129.75 202.074C129.75 202.173 129.75 202.273 129.85 202.273C129.95 202.273 130.05 202.273 130.05 202.173C130.05 202.074 130.05 201.974 129.95 201.974C129.85 201.974 129.75 201.974 129.75 202.074ZM125.548 200.374C125.548 200.474 125.548 200.574 125.648 200.574C125.748 200.574 125.848 200.574 125.848 200.474C125.848 200.374 125.848 200.274 125.748 200.274C125.648 200.174 125.548 200.274 125.548 200.374ZM137.753 195.776C137.653 195.776 137.553 195.876 137.553 195.976C137.553 196.076 137.653 196.176 137.753 196.176C137.853 196.176 137.953 196.076 137.953 195.976C137.953 195.876 137.853 195.776 137.753 195.776ZM131.05 211.87C130.95 211.97 130.95 212.07 131.05 212.07C131.15 212.17 131.25 212.17 131.35 212.07C131.451 211.97 131.451 211.87 131.35 211.77C131.25 211.77 131.15 211.77 131.05 211.87ZM127.849 208.671C127.749 208.771 127.749 208.871 127.849 208.871C127.949 208.971 128.049 208.971 128.149 208.871C128.249 208.771 128.249 208.671 128.149 208.571C128.049 208.571 127.949 208.571 127.849 208.671ZM124.648 205.472C124.548 205.572 124.548 205.672 124.648 205.772C124.748 205.872 124.848 205.872 124.948 205.772C125.048 205.672 125.048 205.572 124.948 205.472C124.848 205.372 124.748 205.372 124.648 205.472ZM121.546 202.173C121.446 202.173 121.446 202.173 121.546 202.173C121.346 202.273 121.346 202.373 121.446 202.473H121.546C121.646 202.473 121.646 202.473 121.746 202.473C121.846 202.373 121.846 202.273 121.746 202.173C121.646 202.173 121.646 202.173 121.546 202.173ZM139.454 206.372C139.354 206.472 139.454 206.572 139.554 206.672C139.654 206.772 139.754 206.672 139.854 206.572C139.954 206.472 139.954 206.372 139.854 206.272C139.654 206.272 139.554 206.272 139.454 206.372ZM135.152 203.573C135.052 203.673 135.152 203.773 135.252 203.873C135.352 203.973 135.452 203.873 135.552 203.773C135.652 203.673 135.552 203.573 135.452 203.473C135.352 203.473 135.152 203.473 135.152 203.573ZM130.75 200.774C130.65 200.874 130.75 200.974 130.85 201.074C130.95 201.174 131.05 201.074 131.15 200.974C131.25 200.874 131.15 200.774 131.15 200.674C130.95 200.674 130.85 200.674 130.75 200.774ZM141.155 195.476C141.055 195.476 140.955 195.476 140.855 195.676C140.855 195.776 140.955 195.876 141.055 195.876C141.155 195.876 141.255 195.876 141.355 195.676V195.576C141.355 195.476 141.255 195.476 141.155 195.476ZM130.25 212.17C130.15 212.269 130.15 212.369 130.15 212.469C130.25 212.569 130.35 212.569 130.45 212.569C130.55 212.469 130.55 212.369 130.55 212.269C130.55 212.169 130.35 212.07 130.25 212.17ZM127.349 207.871C127.249 207.971 127.249 208.071 127.249 208.171C127.349 208.271 127.449 208.271 127.549 208.271C127.649 208.171 127.649 208.071 127.649 207.971C127.549 207.871 127.449 207.771 127.349 207.871ZM124.448 203.573C124.347 203.673 124.347 203.773 124.347 203.873C124.448 203.973 124.548 203.973 124.648 203.873C124.748 203.773 124.748 203.673 124.748 203.573C124.648 203.573 124.548 203.573 124.448 203.573ZM163.864 195.876C163.864 196.076 163.964 196.276 164.164 196.276C164.365 196.276 164.565 196.176 164.565 195.976C164.565 195.776 164.465 195.576 164.264 195.576C164.064 195.476 163.864 195.676 163.864 195.876ZM155.161 193.977C155.161 194.177 155.261 194.377 155.461 194.377C155.661 194.377 155.861 194.277 155.861 194.077C155.861 193.877 155.761 193.677 155.561 193.677C155.361 193.677 155.161 193.777 155.161 193.977ZM146.457 192.177C146.457 192.377 146.557 192.577 146.757 192.577C146.957 192.577 147.157 192.477 147.157 192.277C147.157 192.077 147.057 191.878 146.857 191.878C146.657 191.878 146.457 191.978 146.457 192.177ZM142.855 226.464C142.655 226.564 142.655 226.764 142.755 226.964C142.855 227.164 143.055 227.164 143.256 227.064C143.456 226.964 143.456 226.764 143.356 226.564C143.256 226.464 143.055 226.364 142.855 226.464ZM137.953 219.067C137.753 219.167 137.753 219.367 137.853 219.567C137.953 219.766 138.153 219.766 138.353 219.667C138.554 219.567 138.554 219.367 138.453 219.167C138.353 218.967 138.153 218.967 137.953 219.067ZM133.151 211.57C132.951 211.67 132.951 211.87 133.051 212.07C133.151 212.269 133.351 212.269 133.551 212.17C133.751 212.07 133.751 211.87 133.651 211.67C133.551 211.57 133.351 211.47 133.151 211.57ZM128.249 204.173C128.049 204.273 128.049 204.473 128.149 204.672C128.249 204.872 128.449 204.872 128.649 204.772C128.849 204.672 128.849 204.473 128.749 204.273C128.649 204.073 128.449 204.073 128.249 204.173ZM153.26 210.37C153.16 210.57 153.16 210.77 153.36 210.87C153.56 210.97 153.76 210.97 153.86 210.77C153.96 210.57 153.96 210.37 153.76 210.27C153.66 210.17 153.36 210.17 153.26 210.37ZM145.957 205.372C145.857 205.572 145.857 205.772 146.057 205.872C146.257 205.972 146.457 205.972 146.557 205.772C146.657 205.572 146.657 205.372 146.457 205.272C146.257 205.172 146.057 205.172 145.957 205.372ZM138.554 200.374C138.453 200.574 138.453 200.774 138.654 200.874C138.854 200.974 139.054 200.974 139.154 200.774C139.254 200.574 139.254 200.374 139.054 200.274C138.954 200.174 138.754 200.174 138.554 200.374ZM157.862 206.372C157.762 206.572 157.762 206.772 157.962 206.872C158.162 206.972 158.362 206.972 158.462 206.772C158.562 206.572 158.562 206.372 158.362 206.272C158.262 206.172 157.962 206.172 157.862 206.372ZM150.359 201.674C150.259 201.874 150.359 202.074 150.459 202.173C150.659 202.273 150.859 202.173 150.959 202.074C151.059 201.874 151.059 201.674 150.859 201.574C150.659 201.474 150.459 201.474 150.359 201.674ZM142.855 196.976C142.755 197.175 142.755 197.375 142.955 197.475C143.155 197.575 143.356 197.575 143.456 197.375C143.556 197.175 143.556 196.976 143.356 196.876C143.156 196.776 142.955 196.876 142.855 196.976ZM123.747 210.67C123.547 210.67 123.447 210.87 123.447 211.07C123.447 211.27 123.647 211.37 123.847 211.37C124.047 211.37 124.147 211.17 124.147 210.97C124.147 210.67 123.947 210.57 123.747 210.67ZM121.746 201.974C121.646 201.974 121.546 202.074 121.546 202.173C121.446 202.273 121.446 202.373 121.446 202.473V202.573C121.546 202.773 121.746 202.873 121.946 202.773C122.147 202.673 122.247 202.473 122.147 202.373C122.147 202.273 122.047 202.273 122.047 202.173C121.946 201.974 121.846 201.974 121.746 201.974ZM142.355 216.268C142.155 216.368 142.155 216.568 142.255 216.768C142.355 216.968 142.555 216.968 142.755 216.868C142.955 216.768 142.955 216.568 142.855 216.368C142.755 216.168 142.455 216.068 142.355 216.268ZM137.153 209.071C136.953 209.171 136.953 209.371 137.053 209.571C137.153 209.77 137.353 209.77 137.553 209.67C137.753 209.571 137.753 209.371 137.653 209.171C137.553 208.971 137.353 208.871 137.153 209.071ZM132.051 201.874C131.851 201.974 131.851 202.173 131.951 202.373C132.051 202.573 132.251 202.573 132.451 202.473C132.651 202.373 132.651 202.173 132.551 201.974C132.451 201.774 132.151 201.674 132.051 201.874ZM143.656 200.974C143.556 201.074 143.556 201.274 143.656 201.374C143.756 201.474 143.956 201.474 144.056 201.374C144.156 201.274 144.156 201.074 144.056 200.974C143.956 200.874 143.756 200.874 143.656 200.974ZM138.854 196.376C138.754 196.476 138.754 196.676 138.854 196.776C138.954 196.876 139.154 196.876 139.254 196.776C139.354 196.676 139.354 196.476 139.254 196.376C139.154 196.276 138.954 196.276 138.854 196.376ZM130.65 206.072C130.55 206.172 130.45 206.272 130.45 206.372C130.55 206.472 130.65 206.572 130.85 206.572C130.95 206.472 131.05 206.372 130.95 206.172C130.95 206.072 130.75 205.972 130.65 206.072ZM127.949 199.974C127.849 200.074 127.749 200.174 127.849 200.374C127.949 200.474 128.049 200.574 128.249 200.474C128.349 200.374 128.449 200.274 128.349 200.074C128.249 199.974 128.049 199.874 127.949 199.974Z" fill="white"/>
<path d="M89.9326 92.9167C89.9326 92.9167 55.518 142.197 66.9228 192.477C66.9228 192.477 104.239 210.57 137.653 178.283C137.653 178.283 106.84 118.007 105.139 100.914L89.9326 92.9167Z" fill="url(#paint20_linear_4_4)"/>
<path d="M178.47 106.212H199.579V121.605C199.579 127.403 194.877 132.201 188.975 132.201C183.172 132.201 178.37 127.503 178.37 121.605L178.47 106.212Z" fill="url(#paint21_linear_4_4)"/>
<path d="M187.874 112.609H190.975C192.276 112.609 193.376 113.709 193.376 115.008V130.802H185.573V115.008C185.473 113.709 186.573 112.609 187.874 112.609Z" fill="url(#paint22_linear_4_4)"/>
<path d="M175.968 134.7C175.968 134.7 181.971 123.105 185.472 120.906C185.472 120.906 185.472 128.903 189.074 128.803C193.276 128.703 193.476 121.406 193.276 117.907C193.175 115.408 192.875 115.608 195.176 116.308C196.677 116.807 205.281 121.006 203.58 132.601C201.879 144.197 184.772 144.296 182.471 145.696C181.47 146.296 180.47 146.895 179.47 147.495L175.968 134.7Z" fill="url(#paint23_linear_4_4)"/>
<path d="M89.9319 92.9167C89.9319 92.9167 106.939 94.0163 113.742 115.508C120.545 136.999 122.146 153.393 136.552 150.594C150.958 147.795 166.965 140.198 175.668 133.401L185.272 170.086C185.272 170.086 176.469 183.281 163.663 184.48C150.858 185.68 141.254 193.277 133.751 196.476C126.247 199.674 109.04 204.872 100.636 192.877C92.2329 180.882 78.6271 142.597 80.6279 109.01C83.3291 103.513 86.4304 98.1147 89.9319 92.9167Z" fill="url(#paint24_linear_4_4)"/>
<path d="M129.649 252.953L37.5099 252.953L14.3 129.202C12.5993 120.006 18.6019 111.11 27.9058 109.41C28.9063 109.21 30.0067 109.11 31.0071 109.11L88.5316 109.11C96.7351 109.11 103.738 114.908 105.239 122.905L129.649 252.953Z" fill="url(#paint25_linear_4_4)"/>
<path d="M122.547 74.3242C122.547 74.3242 120.246 83.3206 110.942 85.4198C103.438 87.1191 96.9357 83.9204 94.6347 82.6209C94.8348 82.321 98.3363 76.4233 94.6347 74.0243C90.8331 71.5253 90.8331 70.2258 90.733 68.4265C90.633 66.6272 93.3341 64.1282 97.8361 65.6276C102.338 67.227 106.84 63.3285 107.14 57.9306C111.742 58.7303 116.344 58.4305 120.746 57.031C121.346 58.4305 124.648 67.027 126.048 69.4261C127.649 72.0251 123.847 74.1242 122.547 74.3242Z" fill="#FFBEB6"/>
<path d="M129.349 56.9311C128.849 56.6312 128.248 56.4313 127.648 56.4313C126.047 56.4313 124.347 57.7308 123.546 59.9299C123.446 60.2298 123.346 60.6296 123.246 61.0295C122.946 60.9295 122.646 60.8295 122.246 60.8295C121.145 60.8295 120.145 61.1294 119.244 61.7292C119.244 61.5293 119.244 61.3293 119.144 61.1294C118.944 59.9299 118.444 58.8303 117.644 57.9307C117.444 57.6308 117.144 57.4309 116.843 57.231C115.043 56.1314 112.942 56.6312 111.441 58.4305C110.841 59.1302 110.441 59.8299 110.041 60.7296C109.44 62.3289 109.24 64.1282 109.54 65.9275C109.74 67.1271 110.341 68.3266 111.141 69.2262C111.341 69.4261 111.541 69.6261 111.841 69.826C112.942 70.5257 114.442 70.6257 115.643 69.9259C117.044 69.1263 118.044 67.8268 118.544 66.3274C118.944 65.1278 119.244 63.9283 119.144 62.7288C120.045 62.0291 121.245 61.6292 122.346 61.7292C122.446 61.7292 122.646 61.8291 122.646 61.8291L122.746 62.0291L122.846 62.229L123.046 62.7288C123.046 62.7288 124.547 66.3274 125.147 67.6269C127.148 68.9263 129.449 67.6269 130.649 64.628C132.05 61.7292 131.35 58.2306 129.349 56.9311ZM118.044 65.8276C117.544 67.1271 116.643 68.3266 115.443 69.0263C114.442 69.6261 113.242 69.5261 112.342 68.9263C111.341 68.1267 110.641 67.0271 110.441 65.7276C110.141 64.2282 110.341 62.6288 110.841 61.1294C111.241 60.1298 111.841 59.1302 112.742 58.4305C113.742 57.4309 115.343 57.231 116.643 58.0306L116.743 58.1306C116.944 58.2306 117.044 58.3305 117.244 58.5304C117.944 59.3301 118.444 60.2298 118.644 61.2294C118.744 62.7288 118.644 64.3282 118.044 65.8276ZM130.249 64.2282C129.249 66.7272 127.148 67.9267 125.447 66.8272C123.746 65.7276 123.246 62.8287 124.247 60.3297C125.247 57.8307 127.348 56.6312 129.049 57.7308C130.649 58.7304 131.25 61.7292 130.249 64.2282Z" fill="#81AEF2"/>
<path d="M134.151 35.8394C134.051 35.6395 133.851 35.5396 133.651 35.6395C133.451 35.7395 133.351 35.9394 133.351 36.0394C137.153 48.7343 127.248 56.9311 116.244 58.1306C121.146 57.4309 126.848 55.2318 130.55 49.1342C137.953 36.839 127.148 32.1409 120.946 35.4396C114.743 38.7383 110.341 45.1358 110.341 45.1358C110.341 45.1358 100.637 37.5388 84.9304 43.8363C69.2237 50.1338 75.0262 69.2262 80.6286 74.724C86.231 80.2219 94.6345 82.6209 94.6345 82.6209C94.6345 82.6209 98.4361 76.5233 94.6345 74.0243C90.8329 71.5253 90.8329 70.2258 90.7329 68.4265C90.6328 66.6272 93.334 64.1282 97.8359 65.6276C102.238 67.127 106.64 63.4285 107.14 58.2306C114.443 60.0299 122.346 59.4301 128.349 54.4321C133.951 50.1338 136.252 42.6367 134.151 35.8394Z" fill="#2B2C28"/>
<path d="M353.865 163.8C363.807 172.464 371.274 217.398 371.274 261.27C371.274 305.143 363.809 341.765 353.865 350.431C343.923 341.767 336.456 305.143 336.456 261.27C336.456 217.398 343.923 172.464 353.865 163.8Z" fill="#339956"/>
<path d="M382.614 192.952C391.478 202.762 393.669 248.286 388.571 291.847C383.474 335.408 371.803 370.865 360.925 378.258C352.061 368.447 348.905 331.173 354.002 287.613C359.1 244.052 371.736 200.345 382.614 192.952Z" fill="url(#paint26_linear_4_4)"/>
<path d="M332.478 388.36H392.162C396.558 388.36 400.121 384.716 400.121 380.219V311.032H324.521V380.221C324.521 384.716 328.084 388.36 332.478 388.36Z" fill="url(#paint27_linear_4_4)"/>
<path d="M227.878 37.52L170.562 37.52C168.397 37.52 166.321 38.3748 164.79 39.8964C163.26 41.4179 162.4 43.4816 162.4 45.6334V61.7216C162.4 62.7871 162.611 63.8421 163.021 64.8265C163.431 65.8108 164.032 66.7052 164.79 67.4586C166.321 68.9802 168.397 69.835 170.562 69.835H177.98V78.6069C177.981 79.0083 178.101 79.4005 178.326 79.734C178.551 80.0674 178.87 80.3271 179.243 80.4803C179.616 80.6336 180.027 80.6734 180.423 80.5948C180.819 80.5162 181.183 80.3226 181.468 80.0387L191.736 69.8326L227.878 69.8326C230.042 69.8326 232.118 68.9778 233.649 67.4562C235.18 65.9347 236.04 63.871 236.04 61.7192V45.6334C236.04 43.4816 235.18 41.4179 233.649 39.8964C232.118 38.3748 230.042 37.52 227.878 37.52V37.52Z" fill="#339989"/>
<path d="M327.488 83.6434C324.835 83.6434 322.033 82.307 320.177 80.1554C317.743 77.3338 316.893 73.7193 316.381 70.5555C315.327 64.0313 315.803 59.1059 317.881 55.0565C318.898 53.0732 320.722 50.3824 324.799 49.9104L325.595 49.8223C325.912 49.7884 326.224 49.7717 326.53 49.7717C329.034 49.7717 331.358 50.8804 333.25 52.9768C334.817 54.7129 335.923 57.0337 336.631 60.0718C337.87 65.3909 337.57 71.163 335.784 76.3258C334.656 79.5869 333.067 81.7125 330.928 82.8235C329.878 83.3679 328.721 83.6434 327.488 83.6434ZM326.529 53.5351C326.357 53.5351 326.18 53.5448 326.003 53.5638L325.224 53.6505C323.399 53.8615 322.278 54.7375 321.235 56.7726C319.542 60.0727 319.182 64.2622 320.102 69.956C320.529 72.6004 321.212 75.588 323.033 77.6992C324.176 79.024 325.925 79.88 327.488 79.88C328.11 79.88 328.683 79.7469 329.189 79.484C330.431 78.8385 331.423 77.4039 332.222 75.0965C333.778 70.5954 334.041 65.562 332.96 60.9246C332.4 58.5226 331.579 56.7471 330.45 55.4961C329.276 54.1949 327.957 53.5351 326.529 53.5351Z" fill="white"/>
<path d="M342.833 84.56C341.277 73.2319 340.592 61.6924 340.796 50.2609L344.564 50.3281C344.371 61.1689 344.991 72.1093 346.407 82.8652L346.436 82.862L346.573 84.0973L342.833 84.56Z" fill="white"/>
<path d="M354.683 81.8975C354.518 78.2927 354.268 75.0937 352.871 72.4534C352.059 70.9186 350.566 69.4491 348.874 68.8217C347.883 69.7078 346.811 70.5151 345.647 71.2125L344.897 71.6619L344.069 71.3799C343.258 71.1031 342.617 70.4627 342.312 69.623C341.975 68.697 342.075 67.6495 342.578 66.8199C342.992 66.1378 343.854 65.2494 345.614 64.8951C346.316 64.7537 347.006 64.7092 347.677 64.7444C350.458 61.8111 352.549 58.1001 354.461 54.7068L357.099 50.0239L360.384 51.8694L357.745 56.5523C356.068 59.5297 354.145 62.9416 351.635 65.9463C353.628 67.0787 355.235 68.8639 356.204 70.696C357.965 74.0249 358.262 77.6612 358.449 81.7259L354.683 81.8975Z" fill="white"/>
<path d="M365.95 74.7603C365.937 65.638 365.616 56.3974 364.997 47.2955L368.757 47.04C369.383 56.2254 369.706 65.5499 369.719 74.7552L365.95 74.7603Z" fill="white"/>
<path d="M370.159 80.5592H366.39V83.225H370.159V80.5592Z" fill="white"/>
<path d="M185.921 56.84C187.159 56.84 188.162 55.8371 188.162 54.6C188.162 53.3629 187.159 52.36 185.921 52.36C184.683 52.36 183.68 53.3629 183.68 54.6C183.68 55.8371 184.683 56.84 185.921 56.84Z" fill="#EEEEEE"/>
<path d="M199.78 56.84C201.018 56.84 202.021 55.8371 202.021 54.6C202.021 53.3629 201.018 52.36 199.78 52.36C198.543 52.36 197.539 53.3629 197.539 54.6C197.539 55.8371 198.543 56.84 199.78 56.84Z" fill="#EEEEEE"/>
<path d="M213.639 56.84C214.876 56.84 215.88 55.8371 215.88 54.6C215.88 53.3629 214.876 52.36 213.639 52.36C212.401 52.36 211.398 53.3629 211.398 54.6C211.398 55.8371 212.401 56.84 213.639 56.84Z" fill="#EEEEEE"/>
<defs>
<linearGradient id="paint0_linear_4_4" x1="247.24" y1="161.14" x2="284.76" y2="161.14" gradientUnits="userSpaceOnUse">
<stop stop-color="#A1C3FC"/>
<stop offset="0.7" stop-color="#81AEF2"/>
<stop offset="1" stop-color="#78A9EF"/>
</linearGradient>
<linearGradient id="paint1_linear_4_4" x1="350.308" y1="289.702" x2="350.801" y2="144.295" gradientUnits="userSpaceOnUse">
<stop stop-color="#DDDDDD"/>
<stop offset="1" stop-color="#CBD2D9"/>
</linearGradient>
<linearGradient id="paint2_linear_4_4" x1="47.4338" y1="341.593" x2="47.9269" y2="196.186" gradientUnits="userSpaceOnUse">
<stop stop-color="#DDDDDD"/>
<stop offset="1" stop-color="#CBD2D9"/>
</linearGradient>
<linearGradient id="paint3_linear_4_4" x1="153.624" y1="362.731" x2="154.117" y2="217.323" gradientUnits="userSpaceOnUse">
<stop stop-color="#DDDDDD"/>
<stop offset="1" stop-color="#CBD2D9"/>
</linearGradient>
<linearGradient id="paint4_linear_4_4" x1="174.601" y1="199.155" x2="122.812" y2="201.079" gradientUnits="userSpaceOnUse">
<stop stop-color="#DDDDDD"/>
<stop offset="1" stop-color="#CBD2D9"/>
</linearGradient>
<linearGradient id="paint5_linear_4_4" x1="7.36594" y1="199.188" x2="103.15" y2="198.227" gradientUnits="userSpaceOnUse">
<stop stop-color="#DDDDDD"/>
<stop offset="1" stop-color="#CBD2D9"/>
</linearGradient>
<linearGradient id="paint6_linear_4_4" x1="138.903" y1="370.113" x2="120.392" y2="396.379" gradientUnits="userSpaceOnUse">
<stop offset="0.0898" stop-color="#339989"/>
<stop offset="0.8178" stop-color="#D6D7D8"/>
</linearGradient>
<linearGradient id="paint7_linear_4_4" x1="183.18" y1="232.068" x2="108.703" y2="240.054" gradientUnits="userSpaceOnUse">
<stop offset="0.14" stop-color="#E94A47"/>
<stop offset="1" stop-color="#C63030"/>
</linearGradient>
<linearGradient id="paint8_linear_4_4" x1="104.544" y1="266.946" x2="107.087" y2="240.639" gradientUnits="userSpaceOnUse">
<stop stop-color="#23286B"/>
<stop offset="1" stop-color="#151A4F"/>
</linearGradient>
<linearGradient id="paint9_linear_4_4" x1="63.9952" y1="248.364" x2="114.084" y2="276.615" gradientUnits="userSpaceOnUse">
<stop stop-color="#23286B"/>
<stop offset="1" stop-color="#151A4F"/>
</linearGradient>
<linearGradient id="paint10_linear_4_4" x1="106.235" y1="308.741" x2="104.15" y2="380.541" gradientUnits="userSpaceOnUse">
<stop stop-color="#23286B"/>
<stop offset="1" stop-color="#151A4F"/>
</linearGradient>
<linearGradient id="paint11_linear_4_4" x1="137.905" y1="357.897" x2="103.024" y2="347.654" gradientUnits="userSpaceOnUse">
<stop stop-color="#23286B"/>
<stop offset="1" stop-color="#151A4F"/>
</linearGradient>
<linearGradient id="paint12_linear_4_4" x1="45.9233" y1="331.63" x2="73.8944" y2="356.908" gradientUnits="userSpaceOnUse">
<stop stop-color="#23286B"/>
<stop offset="1" stop-color="#151A4F"/>
</linearGradient>
<linearGradient id="paint13_linear_4_4" x1="84.5176" y1="372.283" x2="52.1657" y2="398.326" gradientUnits="userSpaceOnUse">
<stop offset="0.0898" stop-color="#339989"/>
<stop offset="0.8178" stop-color="#D6D7D8"/>
</linearGradient>
<linearGradient id="paint14_linear_4_4" x1="168.971" y1="368.46" x2="144.126" y2="394.966" gradientUnits="userSpaceOnUse">
<stop offset="0.0898" stop-color="#EEEEEE"/>
<stop offset="0.8178" stop-color="#D6D7D8"/>
</linearGradient>
<linearGradient id="paint15_linear_4_4" x1="96.0695" y1="349.281" x2="166.9" y2="376.662" gradientUnits="userSpaceOnUse">
<stop offset="0.1291" stop-color="#2B2C28"/>
<stop offset="0.9987" stop-color="#4D5044"/>
</linearGradient>
<linearGradient id="paint16_linear_4_4" x1="28.9851" y1="279.414" x2="189.49" y2="260.723" gradientUnits="userSpaceOnUse">
<stop stop-color="#23286B"/>
<stop offset="1" stop-color="#151A4F"/>
</linearGradient>
<linearGradient id="paint17_linear_4_4" x1="58.2723" y1="367.928" x2="38.5887" y2="395.602" gradientUnits="userSpaceOnUse">
<stop offset="0.0898" stop-color="#339989"/>
<stop offset="0.8178" stop-color="#D6D7D8"/>
</linearGradient>
<linearGradient id="paint18_linear_4_4" x1="92.8074" y1="104.722" x2="106.102" y2="79.7943" gradientUnits="userSpaceOnUse">
<stop stop-color="#FFBEB6"/>
<stop offset="1" stop-color="#F2A19C"/>
</linearGradient>
<linearGradient id="paint19_linear_4_4" x1="181.195" y1="283.822" x2="51.5482" y2="190.42" gradientUnits="userSpaceOnUse">
<stop stop-color="#23286B"/>
<stop offset="1" stop-color="#151A4F"/>
</linearGradient>
<linearGradient id="paint20_linear_4_4" x1="64.5943" y1="145.248" x2="137.641" y2="145.248" gradientUnits="userSpaceOnUse">
<stop stop-color="#A1C3FC"/>
<stop offset="0.6955" stop-color="#81AEF2"/>
<stop offset="1" stop-color="#78A9EF"/>
</linearGradient>
<linearGradient id="paint21_linear_4_4" x1="180.529" y1="90.2843" x2="193.581" y2="128.322" gradientUnits="userSpaceOnUse">
<stop offset="0.14" stop-color="#E94A47"/>
<stop offset="1" stop-color="#C63030"/>
</linearGradient>
<linearGradient id="paint22_linear_4_4" x1="189.85" y1="113.803" x2="188.565" y2="143.532" gradientUnits="userSpaceOnUse">
<stop offset="0.14" stop-color="#E94A47"/>
<stop offset="1" stop-color="#C63030"/>
</linearGradient>
<linearGradient id="paint23_linear_4_4" x1="197.838" y1="144.834" x2="170.954" y2="107.166" gradientUnits="userSpaceOnUse">
<stop stop-color="#FFBEB6"/>
<stop offset="1" stop-color="#F2A19C"/>
</linearGradient>
<linearGradient id="paint24_linear_4_4" x1="143.261" y1="167.783" x2="78.7534" y2="114.818" gradientUnits="userSpaceOnUse">
<stop stop-color="#A1C3FC"/>
<stop offset="0.6955" stop-color="#81AEF2"/>
<stop offset="1" stop-color="#78A9EF"/>
</linearGradient>
<linearGradient id="paint25_linear_4_4" x1="95.042" y1="139.441" x2="18.63" y2="298.162" gradientUnits="userSpaceOnUse">
<stop offset="0.14" stop-color="#339989"/>
<stop offset="1" stop-color="#7DE2D1"/>
</linearGradient>
<linearGradient id="paint26_linear_4_4" x1="391.273" y1="285.604" x2="351.56" y2="285.604" gradientUnits="userSpaceOnUse">
<stop stop-color="#339956"/>
<stop offset="1" stop-color="#BCEF2A"/>
</linearGradient>
<linearGradient id="paint27_linear_4_4" x1="400.121" y1="349.696" x2="324.52" y2="349.696" gradientUnits="userSpaceOnUse">
<stop stop-color="#F2A19C"/>
<stop offset="1" stop-color="#E94A47"/>
</linearGradient>
</defs>
</svg>