<svg id="visual" viewBox="0 0 960 300" width="960" height="300" xmlns="http://www.w3.org/2000/svg" xmlns:xlink="http://www.w3.org/1999/xlink" version="1.1"><rect x="0" y="0" width="960" height="300" fill="#FFFFFF"></rect><path d="M0 227L22.8 224C45.7 221 91.3 215 137 209C182.7 203 228.3 197 274 204.2C319.7 211.3 365.3 231.7 411.2 240C457 248.3 503 244.7 548.8 234.3C594.7 224 640.3 207 686 206C731.7 205 777.3 220 823 220.7C868.7 221.3 914.3 207.7 937.2 200.8L960 194L960 301L937.2 301C914.3 301 868.7 301 823 301C777.3 301 731.7 301 686 301C640.3 301 594.7 301 548.8 301C503 301 457 301 411.2 301C365.3 301 319.7 301 274 301C228.3 301 182.7 301 137 301C91.3 301 45.7 301 22.8 301L0 301Z" fill="#7DE2D1" stroke-linecap="round" stroke-linejoin="miter"></path></svg>